<?xml version="1.0" standalone="no"?>
<!DOCTYPE svg PUBLIC "-//W3C//DTD SVG 1.1//EN" "http://www.w3.org/Graphics/SVG/1.1/DTD/svg11.dtd">
<svg xmlns="http://www.w3.org/2000/svg">
<defs >
<font id="Amiri" horiz-adv-x="447" ><font-face
    font-family="Amiri"
    units-per-em="1000"
    panose-1="0 0 5 0 0 0 0 0 0 0"
    ascent="1124"
    descent="-634"
    alphabetic="0" />
<glyph unicode=" " glyph-name="space" horiz-adv-x="292" />
<glyph unicode="!" glyph-name="exclam" horiz-adv-x="263" d="M135 671Q159 671 177 653Q195 635 195 604Q195 585 180 435Q173 377 167 323T154 216Q151 191 134 191Q114 191 111 217Q104 273 98 324T86 424Q79 498 75 543T70 605Q70 634 89 653Q107 671 135
671ZM58 64Q58 94 79 115Q100 136 131 136Q162 136 183 114Q204 92 204 62Q204 32 183 11Q161 -11 132 -11Q101 -11 80 11Q58 35 58 64Z" />
<glyph unicode="&quot;" glyph-name="quotedbl" horiz-adv-x="273" d="M89 683Q104 683 114 670Q114 660 113 637T110 584T106 527T101 480Q96 469 81 462Q75 462 72 468Q56 521 47 557T38 614Q38 628 44 644T62 671T89 683ZM206 683Q221 683 231 670Q231 660
230 637T227 584T223 527T218 480Q213 469 198 462Q192 462 189 468Q173 521 164 557T155 614Q155 628 161 644T179 671T206 683Z" />
<glyph unicode="#" glyph-name="numbersign" horiz-adv-x="468" d="M404 360H340L318 222H383Q390 222 390 212T388 189T377 174H311L295 75Q294 72 288 67T271 62Q264 62 262 64T260 66L277 174H152L136 75Q135 72 130 67T114 62Q107 62 105 64T103 66L120 174H55Q49
174 49 185T54 208T65 222H128L150 360H83Q77 360 77 371T81 394T91 408H157L173 506Q175 513 178 516T195 519Q202 519 204 519T208 516L190 408H315L331 506Q333 513 335 516T352 519Q359 519 361 519T365 516L348 408H410Q417 408 417 397T415 375T404 360ZM183
360L160 222H285L307 360H183Z" />
<glyph unicode="$" glyph-name="dollar" horiz-adv-x="486" d="M285 667Q291 667 305 666T319 660L312 618Q329 614 348 609T393 598Q400 568 401 537T404 483Q404 478 404 474T404 465Q397 461 387 461Q378 461 373 466Q370 491 353 522T305 573L268 347Q270
346 271 345T274 343Q297 328 325 311T379 273T421 224T438 162Q438 110 410 72T337 12T241 -10Q233 -10 225 -10T209 -8L202 -51Q195 -51 182 -49T168 -42L174 -4Q146 1 120 7T72 18Q66 46 61 77T53 132T50 161Q53 164 61 166T74 169Q83 169 85 164Q88 153 96
128T125 76T181 35L221 277Q186 298 151 322T91 380T67 459Q67 509 93 546T162 603T251 624Q259 624 265 624T278 623L285 667ZM253 259L215 26Q222 25 229 24T243 23Q287 23 321 52T355 137Q355 172 341 193T304 229T253 259ZM236 367L272 588Q265 590 259 591T245
592Q204 592 182 576T152 535T143 488Q143 443 171 417T236 367Z" />
<glyph unicode="%" glyph-name="percent" horiz-adv-x="651" d="M468 306Q511 306 542 284T592 227T610 148Q610 109 593 74T544 16T467 -7Q427 -7 394 14T340 70T320 148Q320 192 339 227T391 284T468 306ZM186 630Q229 630 261 609T311 552T329 473Q329 434
312 399T263 340T186 317Q146 317 113 338T59 394T39 473Q39 517 57 552T109 609T186 630ZM182 606Q153 606 136 588T110 541T102 484Q102 451 114 418T146 364T191 342Q220 342 236 361T258 408T265 465Q265 498 255 530T227 584T182 606ZM464 282Q435 282 417
264T391 217T383 160Q383 126 395 94T429 40T474 18Q503 18 518 37T540 84T546 141Q546 174 537 206T509 260T464 282ZM584 609L112 0Q109 -4 99 -8T80 -12Q70 -12 67 -7T62 -1L533 609Q537 614 543 617T553 621Q574 621 575 619T584 609Z" />
<glyph unicode="&amp;" glyph-name="ampersand" horiz-adv-x="790" d="M438 523Q473 523 499 502T526 445Q526 398 498 364T426 306T334 265T244 240Q245 152 291 98T414 44Q460 44 502 61T571 110T599 188Q599 217 587 229Q561 219 534 208T490 183T472 146Q472
135 472 131T474 118Q471 117 463 120T450 128Q448 132 443 142T437 172Q437 209 450 230T492 268T562 311Q595 331 629 358T687 428T711 533Q718 534 724 532T735 527Q752 514 768 485T785 421Q785 380 766 349T717 294T652 254Q655 247 657 238T660 217Q660 167
637 127T574 57T485 11T384 -5Q337 -5 290 8T204 49T142 115T118 208Q87 198 69 186T51 151Q51 138 56 131T71 115Q80 107 85 98T91 77Q91 53 76 39T38 24Q28 24 22 25T7 29Q-2 44 -6 63T-10 96Q-10 149 22 188T113 246Q117 247 121 249Q130 299 158 348T228 436T324
499T438 523ZM246 284Q281 296 312 314T362 360T382 427Q382 448 371 460T346 472Q318 472 297 445T263 374T246 284Z" />
<glyph unicode="&apos;" glyph-name="quotesingle" horiz-adv-x="156" d="M89 683Q104 683 114 670Q114 660 113 637T110 584T106 527T101 480Q96 469 81 462Q75 462 72 468Q56 521 47 557T38 614Q38 628 44 644T62 671T89 683Z" />
<glyph unicode="(" glyph-name="parenleft" horiz-adv-x="458" d="M259 167Q259 -60 350 -241Q392 -325 433 -360L421 -387Q380 -365 342 -332T269 -253Q133 -78 133 167Q133 411 269 586Q304 631 342 664T421 720L433 693Q392 658 350 574Q259 393 259 167Z" />
<glyph unicode=")" glyph-name="parenright" horiz-adv-x="458" d="M200 167Q200 393 109 574Q67 658 26 693L38 720Q79 698 117 665T190 586Q326 411 326 167Q326 -78 190 -253Q155 -298 117 -331T38 -387L26 -360Q67 -325 109 -241Q200 -60 200 167Z" />
<glyph unicode="*" glyph-name="asterisk" horiz-adv-x="432" d="M295 599Q308 613 323 617T349 610Q361 598 359 584T343 556Q318 533 294 523T249 493Q249 493 246 488T244 479Q245 473 253 470Q279 458 302 457T358 440Q375 433 384 420T386 393Q379 378 364
375T333 381Q302 398 286 418T244 451Q244 451 239 453T230 454Q226 452 226 449T224 441Q223 428 224 417T226 394Q228 381 229 367T228 333Q226 315 217 303T191 292Q175 294 168 307T164 339Q171 374 185 396T204 446Q204 446 204 451T201 459Q197 464 188 462Q161
456 141 444T86 424Q69 420 53 425T35 446Q32 462 43 473T72 487Q90 489 105 488T134 484Q147 483 159 482T185 482Q185 482 190 484T196 490Q199 496 194 504Q180 528 162 543T127 590Q118 606 118 622T132 645Q147 653 160 646T182 622Q197 590 198 565T212 513Q212
513 215 508T222 502Q228 501 235 508Q254 528 263 550T295 599Z" />
<glyph unicode="+" glyph-name="plus" horiz-adv-x="529" d="M236 463Q248 468 260 471T278 474Q286 474 288 471T291 468V268H490Q499 268 499 256Q499 244 494 232T483 213H291V16Q282 9 270 7T249 5Q236 5 236 14V213H36Q36 213 33 214T30 223Q30 226 34 244T45
268H236V463Z" />
<glyph unicode="," glyph-name="comma" horiz-adv-x="208" d="M-29 -101Q-25 -98 -8 -83T26 -46T43 0Q43 14 35 21T18 38T9 66Q9 95 34 113T91 132Q112 132 122 120Q125 113 125 99Q125 76 118 46T97 -10Q74 -52 49 -74T-14 -120Q-29 -116 -29 -101Z" />
<glyph unicode="-" glyph-name="hyphen" horiz-adv-x="356" d="M70 261L292 272Q296 272 297 269T298 261Q298 255 294 240T283 213T272 199L52 188Q47 188 47 203Q47 209 50 222T59 248T70 261Z" />
<glyph unicode="." glyph-name="period" horiz-adv-x="211" d="M7 59Q12 86 34 105T81 124Q106 124 120 105T130 59Q125 32 104 11T57 -11Q31 -11 17 10T7 59Z" />
<glyph unicode="/" glyph-name="slash" horiz-adv-x="344" d="M314 711Q332 711 333 704L81 -182Q80 -189 66 -196Q60 -199 52 -201T32 -203Q27 -203 21 -201Q17 -199 15 -198L14 -196L267 690Q272 698 283 705Q289 709 296 710T314 711Z" />
<glyph unicode="0" glyph-name="zero" horiz-adv-x="532" d="M266 626Q335 626 382 583T454 469T479 312Q479 227 454 156T382 41T266 -3Q200 -3 152 40T79 155T53 312Q53 397 78 468T151 583T266 626ZM271 590Q230 590 201 553T155 452T139 312Q139 236 155 173T198
71T262 33Q306 33 335 72T378 176T393 317Q393 394 378 455T335 553T271 590Z" />
<glyph unicode="1" glyph-name="one" horiz-adv-x="532" d="M241 113V508Q241 529 237 537T221 545Q210 545 187 538T152 525Q143 532 143 542Q143 542 143 543Q143 547 145 548Q185 566 223 584T287 615T314 627H316Q321 627 323 621T326 611Q326 611 322 587T318
517V113Q318 91 318 72T323 41Q325 36 338 32T365 27T386 25Q389 21 389 11T386 -3Q356 -1 331 0T277 2Q249 2 226 1T173 -3Q169 1 169 11T173 25Q179 25 193 26T221 32T235 41Q239 53 240 72T241 113Z" />
<glyph unicode="2" glyph-name="two" horiz-adv-x="532" d="M467 146Q457 122 446 92T426 35T414 0H76Q73 2 70 6T66 14Q107 60 150 110T232 209T299 299Q329 343 337 376T346 445Q346 495 316 529T238 563Q199 563 170 546T123 509T99 479Q93 479 87 485T80 495Q83
504 96 525T134 570T189 610T260 627Q307 627 345 604T406 543T429 464Q429 422 414 385T373 316Q339 274 298 227T219 138T160 71H354Q383 71 401 89T436 146Q438 152 447 152Q450 152 457 150T467 146Z" />
<glyph unicode="3" glyph-name="three" horiz-adv-x="532" d="M275 627Q300 627 330 613T381 570T403 502Q403 471 388 445T351 400T312 370Q340 366 372 347T426 295T449 213Q449 163 428 123T371 54T291 10T201 -5Q182 -5 154 0T102 18Q98 21 90 32T82 55Q82
76 94 89T123 102Q143 102 154 87T178 59Q192 45 211 40T250 34Q276 34 302 48T347 96T365 186Q365 226 347 256T301 305T240 323Q224 323 208 318T182 311Q176 319 176 330Q176 337 178 340Q217 349 252 367T308 413T330 484Q330 523 303 549T234 575Q203 575
180 561T144 531T125 511Q121 511 117 518T113 532Q128 555 151 576T206 612T275 627Z" />
<glyph unicode="4" glyph-name="four" horiz-adv-x="532" d="M396 629Q404 629 407 623T411 611V226H469Q474 226 478 214T482 186Q482 175 479 170H411V-1Q411 -1 405 -3T369 -6Q334 -6 334 2V170H59Q54 173 52 178T49 188L367 604Q372 610 381 619T396 629ZM334
512L115 226H334V512Z" />
<glyph unicode="5" glyph-name="five" horiz-adv-x="532" d="M266 386Q324 386 364 360T427 295T449 213Q449 163 428 123T371 54T291 10T201 -5Q182 -5 154 0T102 18Q98 21 90 32T82 55Q82 76 94 89T123 102Q143 102 154 87T178 59Q192 45 211 40T250 34Q276
34 302 48T347 96T365 186Q365 217 350 250T300 307T209 331Q193 331 166 327T127 316Q124 316 122 320T119 330Q130 385 141 440T161 542T176 620H320Q340 620 361 622T396 626T410 629Q415 626 418 624T422 618Q422 615 419 603T409 575T393 549Q373 547 345
545T279 543H197Q188 499 180 454T162 367Q182 375 214 380T266 386Z" />
<glyph unicode="6" glyph-name="six" horiz-adv-x="532" d="M282 386Q333 386 367 367T422 319T452 257T461 198Q461 144 435 98T364 23T263 -6Q219 -6 184 13T123 65T85 136T71 215Q71 290 95 357T165 474Q200 512 245 544T338 599T427 632Q434 632 436 621T438
604Q407 594 368 576T288 528T216 453T167 342Q193 363 225 374T282 386ZM159 299Q157 283 156 266T155 232Q155 199 162 163T183 96T220 46T271 26Q318 26 348 70T378 180Q378 222 366 258T326 316T255 338Q234 338 209 332T159 299Z" />
<glyph unicode="7" glyph-name="seven" horiz-adv-x="532" d="M398 618Q417 618 439 619T465 621Q471 621 471 612Q471 602 462 585T443 547L186 -2Q183 -5 176 -5Q165 -5 149 0T133 13Q158 51 188 105T249 219T309 337T360 442T396 518T410 547H162Q133 547 118
529T92 472Q91 466 80 466Q77 466 71 468T61 472Q74 512 85 553T102 618H398Z" />
<glyph unicode="8" glyph-name="eight" horiz-adv-x="532" d="M271 628Q315 628 351 611T410 562T432 484Q432 446 414 418T371 370T322 336Q315 334 322 330Q352 314 381 288T430 230T450 163Q450 114 424 75T356 14T264 -9Q211 -9 170 11T105 67T82 150Q82 182
96 208T131 254T173 288T209 311Q213 314 209 316Q189 328 166 350T126 403T109 469Q109 511 131 547T191 605T271 628ZM266 26Q314 26 342 56T371 135Q371 165 354 191T314 238T271 272T246 288Q242 290 240 290Q237 290 236 289Q196 264 178 232T159 153Q159
113 175 85T215 41T266 26ZM266 594Q231 594 207 562T182 486Q182 449 199 424T241 382T283 355Q285 354 289 354Q290 354 290 354Q293 354 295 355Q325 375 343 405T361 475Q361 504 350 531T317 576T266 594Z" />
<glyph unicode="9" glyph-name="nine" horiz-adv-x="532" d="M94 22Q125 32 164 50T244 98T316 173T365 284Q340 263 308 252T250 240Q199 240 165 259T110 307T81 369T72 428Q72 483 98 529T170 603T270 632Q314 632 349 613T410 561T448 490T461 411Q461 336
438 269T367 152Q333 114 287 82T194 28T105 -6Q98 -6 96 6T94 22ZM373 327Q375 343 376 360T377 394Q377 427 370 463T349 530T313 580T262 600Q216 600 186 556T155 446Q155 405 167 369T206 310T277 288Q298 288 323 294T373 327Z" />
<glyph unicode=":" glyph-name="colon" horiz-adv-x="220" d="M57 368Q57 390 73 405T111 421Q133 421 148 406T164 368Q164 346 149 330T111 313Q89 313 73 329T57 368ZM57 44Q57 66 73 81T111 97Q133 97 148 82T164 44Q164 22 149 6T111 -11Q89 -11 73 5T57 44Z" />
<glyph unicode=";" glyph-name="semicolon" horiz-adv-x="226" d="M124 120Q137 120 149 113Q154 104 160 89T167 45Q167 24 157 -3T129 -56T91 -104T52 -136Q47 -136 42 -128T37 -115Q47 -107 61 -94T87 -60T99 -7Q99 9 91 19T75 41T66 72Q66 88 82 104T124 120ZM60
368Q60 390 76 405T114 421Q136 421 151 406T167 368Q167 346 152 330T114 313Q92 313 76 329T60 368Z" />
<glyph unicode="&lt;" glyph-name="less" horiz-adv-x="480" d="M434 34Q434 31 432 19T425 -4T418 -15Q417 -15 413 -13L47 173Q36 179 33 189T29 212Q29 220 34 225T47 235L407 418Q411 420 412 420Q414 420 419 411T429 374Q430 370 428 368T426 365L107 204L431
40Q431 40 432 39T434 34Z" />
<glyph unicode="=" glyph-name="equal" horiz-adv-x="551" d="M467 258H71Q65 258 66 270T73 296T86 312H480Q487 312 486 300T480 275T467 258ZM467 117H71Q65 117 66 129T73 155T86 171H480Q487 171 486 159T480 134T467 117Z" />
<glyph unicode="&gt;" glyph-name="greater" horiz-adv-x="481" d="M47 34Q47 37 48 38T50 40L373 204L56 365Q56 365 55 366T53 373Q53 387 59 403T68 420Q69 420 73 418L435 235Q451 227 451 212Q451 199 449 189T435 173L68 -13Q64 -15 63 -15Q60 -15 56 -5T50
18T47 34Z" />
<glyph unicode="?" glyph-name="question" horiz-adv-x="347" d="M98 535Q88 535 72 547T55 584Q55 609 63 620Q77 627 110 627Q134 627 166 615T230 580T282 523T303 446Q303 397 281 363T204 297Q191 289 175 277T145 253T128 236Q123 226 122 211T122 182Q122
178 122 175T122 168Q119 162 116 159T106 155Q98 158 94 166Q90 182 88 209T86 255Q86 291 99 313T132 350T169 376Q205 399 229 420T254 476Q254 514 232 535T182 556Q156 556 143 551T120 541T98 535ZM62 44Q62 66 78 81T116 97Q138 97 153 82T169 44Q169 22
154 6T116 -11Q94 -11 78 5T62 44Z" />
<glyph unicode="@" glyph-name="at" horiz-adv-x="730" d="M408 564Q480 564 533 539T623 471T677 375T695 264Q695 190 669 128T597 30T494 -7Q458 -7 436 12T413 77Q413 86 415 101T420 122Q413 109 399 88T365 45T325 10T282 -5Q252 -5 231 14T200 63T189 127Q189
181 213 233T279 329T369 399T469 425Q495 425 510 421T540 412L480 104Q479 101 479 92T478 79Q478 56 491 46T524 35Q555 35 585 66T636 148T656 261Q656 311 641 358T596 442T519 502T408 525Q333 525 274 494T173 410T109 294T87 166Q87 81 126 18T217 -76Q243
-92 259 -97T290 -104Q290 -110 277 -115T255 -121Q246 -121 237 -120T217 -115Q172 -98 134 -58T72 39T48 166Q48 238 72 308T142 437T256 529T408 564ZM428 380Q400 380 371 360T317 306T277 231T262 147Q262 101 274 77T312 52Q330 52 351 72T391 124T426 195T448
268L468 367Q461 375 450 377T428 380Z" />
<glyph unicode="A" glyph-name="A" horiz-adv-x="605" d="M60 131L347 609Q353 619 366 632T387 646Q393 646 398 644T405 640L495 145Q500 123 502 107T507 74Q511 54 525 45T553 34T571 32Q573 25 571 12T565 -4Q538 -2 507 1T445 4Q414 4 373 1T306 -4Q304
-1 305 7T309 24T314 32Q326 32 342 36T370 50Q381 58 382 66Q383 69 381 84T374 122T366 165T359 201T356 215Q356 215 355 217T351 219Q331 220 314 220T281 220Q276 220 272 220T264 220Q236 220 215 220T169 219Q165 219 162 214Q162 214 153 199T133 165T113
132Q103 114 92 92T80 65Q78 53 92 46T124 35T144 32Q147 27 144 13T137 -4Q114 -1 92 1T40 4Q9 4 -13 2T-59 -4Q-61 -1 -60 11T-54 31Q-48 31 -34 35T-6 47T15 62Q31 82 39 96T60 131ZM308 465L193 273Q193 273 193 272T195 270Q209 269 231 268T269 267Q290 267
305 267T342 269Q344 269 345 271T346 273L308 465Z" />
<glyph unicode="B" glyph-name="B" horiz-adv-x="575" d="M387 645Q429 645 468 630T529 581T540 490Q532 451 507 423T456 379T416 357Q410 355 410 354T410 352Q427 350 449 339T491 306T521 256T524 188Q514 140 480 98T398 29Q352 4 303 0T203 -3Q195 -3 183
-3T154 -3Q126 -3 93 -3T33 -3T-8 -3Q-10 2 -8 15T-1 33Q5 34 18 35T45 40T61 50Q69 65 74 88T85 142L155 501Q156 505 156 509T158 517Q163 542 166 561T166 593Q165 600 154 603T129 607T110 608Q108 613 111 627T118 645Q148 643 183 643T247 642Q276 642 311
643T387 645ZM248 324L206 106Q206 105 205 103Q204 95 202 77T202 50Q206 42 223 40T257 38Q278 38 302 50T348 92T379 172Q387 209 383 243T359 301T295 324H248ZM256 362H303Q337 362 364 391T402 476Q416 546 402 575T353 605Q337 605 324 604T305 594Q300
585 297 570T289 534L256 362Z" />
<glyph unicode="C" glyph-name="C" horiz-adv-x="630" d="M433 609Q369 609 314 565T225 443T191 262Q191 228 199 189T225 115T276 58T356 36Q391 36 421 48T474 78Q497 97 516 124T547 173T561 199Q582 199 591 188Q590 184 582 162T562 113T540 64T524 39Q483
17 438 5T329 -7Q258 -7 206 17T119 82T68 172T51 270Q51 362 85 432T177 552T301 626T433 651Q478 651 531 642T623 623Q623 619 622 599T618 553T613 507T610 482Q609 478 603 474T589 469Q580 469 577 473Q576 487 570 509T548 555T504 593T433 609Z" />
<glyph unicode="D" glyph-name="D" horiz-adv-x="703" d="M387 645Q492 645 562 603T661 486T670 310Q648 196 587 127T439 28T254 -3Q247 -3 233 -3T202 -3Q166 -3 122 -3T42 -3T-8 -3Q-10 2 -8 15T-1 33Q5 34 18 35T45 40T61 50Q69 65 74 88T85 142L155 501Q156
505 156 509T158 517Q163 542 166 561T166 593Q165 600 154 603T129 607T110 608Q108 613 111 627T118 645Q148 643 183 643T247 642Q276 642 311 643T387 645ZM289 534L212 138Q212 137 211 134Q209 123 205 99T204 61Q206 51 223 45T257 38Q368 38 432 101T525
307Q544 403 528 469T466 570T353 605Q337 605 324 604T305 594Q300 585 297 570T289 534Z" />
<glyph unicode="E" glyph-name="E" horiz-adv-x="558" d="M247 642Q258 642 286 642T352 644T427 645T496 647T544 648Q542 618 542 589T542 531Q542 524 542 517T542 504Q540 502 533 501T520 499Q509 499 507 507Q500 548 485 576T428 605H353Q337 605 324 604T305
594Q300 585 297 570T289 534L255 359Q254 355 265 352T292 349H340Q367 349 383 354T410 374T434 417Q437 425 445 425Q459 425 462 420L426 232Q425 231 419 230T408 229Q397 229 397 236Q396 271 390 282T377 296Q363 303 310 303Q298 303 282 302T254 298T241
289L212 138Q212 137 211 134Q209 123 205 99T204 61Q206 51 224 46T259 41H319Q345 41 368 49T410 73Q442 103 477 166Q480 172 491 172Q498 172 507 170T517 166Q504 140 488 109T458 49T436 -2H117Q70 -2 36 -2T-8 -3Q-10 2 -8 15T-1 33Q5 34 18 35T45 40T61
50Q69 65 74 88T85 142L155 501Q156 505 156 509T158 517Q163 542 166 561T166 593Q165 600 154 603T129 607T110 608Q108 613 111 627T118 645Q148 643 183 643T247 642Z" />
<glyph unicode="F" glyph-name="F" horiz-adv-x="512" d="M247 642Q258 642 286 642T352 644T427 645T496 647T544 648Q542 618 542 589T542 531Q542 524 542 517T542 504Q540 502 532 501T519 499Q509 499 507 507Q500 548 485 576T428 605H352Q336 605 323 604T305
594Q300 585 297 570T289 534L254 355Q253 351 264 348T291 345H339Q366 345 382 350T409 370T433 413Q436 421 444 421Q458 421 461 416L425 229Q421 225 407 225Q396 225 396 232Q395 267 389 278T376 292Q369 296 352 297T308 299Q296 299 280 298T253 294T240
285L213 142Q212 138 212 134T210 126Q205 101 202 82T202 50Q203 44 216 40T244 35T265 32Q267 27 265 14T258 -4Q241 -2 216 -1T166 2T121 3Q93 3 56 1T-9 -4Q-11 1 -8 14T-1 32Q5 33 18 34T44 40T60 50Q68 65 73 88T85 142L155 501Q156 505 156 509T158 517Q163
542 166 561T166 593Q165 600 154 603T129 607T110 608Q108 613 111 627T118 645Q148 643 183 643T247 642Z" />
<glyph unicode="G" glyph-name="G" horiz-adv-x="662" d="M433 651Q478 651 531 642T623 623Q623 619 622 599T618 553T613 507T610 482Q609 478 603 474T589 469Q580 469 577 473Q576 487 570 509T547 555T504 593T433 609Q369 609 314 565T225 443T191 262Q191
228 199 189T225 115T276 58T356 36Q381 36 394 40T412 49Q415 51 418 54T422 65Q424 73 427 94T436 141T445 191Q445 192 445 193Q448 207 449 216T450 241Q449 253 437 259T411 266T391 268Q389 268 389 276T391 293T397 304Q432 303 469 301T540 298Q569 298
594 300T647 304Q648 294 645 281T640 268Q635 268 619 264T594 255Q590 252 584 240T575 213Q570 186 564 154T553 96Q552 92 552 87T553 77Q553 69 553 67Q552 59 540 50T517 35Q478 16 435 5T329 -7Q258 -7 206 17T119 82T68 172T51 270Q51 362 85 432T177 552T301
626T433 651Z" />
<glyph unicode="H" glyph-name="H" horiz-adv-x="690" d="M247 640Q276 640 312 641T376 646Q378 642 376 629T369 610Q363 610 350 609T324 604T308 593Q300 578 294 556T282 501L256 362Q256 361 256 360T257 359Q283 358 309 357T366 356Q391 356 419 357T473
359Q473 359 474 360T475 363L501 501Q502 505 502 509T504 517Q509 542 512 561T512 593Q511 600 500 603T476 608T457 610Q455 615 457 628T464 646Q490 643 527 642T593 640Q622 640 658 641T722 646Q724 642 722 629T715 610Q709 610 696 609T670 604T653 593Q645
578 640 556T628 501L558 142Q558 140 557 138Q551 108 548 86T548 50Q549 44 560 40T583 35T602 32Q604 27 602 14T596 -4Q571 -1 534 1T467 3Q439 3 402 1T338 -4Q336 1 338 14T345 32Q351 33 364 34T390 40T406 50Q414 65 420 88T432 142L463 303Q463 305 463
306T462 308Q437 309 411 309T356 310Q306 310 283 310T254 308T245 306Q244 305 244 304T243 302L213 142Q212 138 212 134T210 126Q205 101 202 82T202 50Q203 44 214 40T238 35T257 32Q259 27 257 14T250 -4Q225 -1 188 1T121 3Q93 3 56 1T-9 -4Q-11 1 -8 14T-1
32Q5 33 18 34T44 40T60 50Q68 65 73 88T85 142L155 501Q156 505 156 509T158 517Q163 542 166 561T166 593Q165 600 154 603T130 608T111 610Q109 615 111 628T118 646Q144 643 181 642T247 640Z" />
<glyph unicode="I" glyph-name="I" horiz-adv-x="344" d="M247 640Q276 640 312 641T376 646Q378 642 376 629T369 610Q363 610 350 609T324 604T308 593Q300 578 294 556T282 501L213 142Q212 138 212 134T210 126Q205 101 202 82T202 50Q203 44 214 40T238 35T257
32Q259 27 257 14T250 -4Q225 -1 188 1T121 3Q93 3 56 1T-9 -4Q-11 1 -8 14T-1 32Q5 33 18 34T44 40T60 50Q68 65 73 88T85 142L155 501Q156 505 156 509T158 517Q163 542 166 561T166 593Q165 600 154 603T130 608T111 610Q109 615 111 628T118 646Q144 643 181
642T247 640Z" />
<glyph unicode="J" glyph-name="J" horiz-adv-x="328" d="M241 640Q270 640 306 641T370 646Q372 642 370 629T363 610Q357 610 344 609T318 604T302 593Q294 578 288 556T276 501L206 140Q193 73 164 20T98 -75T23 -145T-47 -191T-96 -213Q-100 -211 -103 -205T-106
-195Q-106 -191 -104 -189Q-28 -148 13 -69T78 132L149 501Q150 505 150 509T152 517Q157 542 160 561T160 593Q159 600 148 603T124 608T105 610Q103 615 105 628T112 646Q138 643 175 642T241 640Z" />
<glyph unicode="K" glyph-name="K" horiz-adv-x="671" d="M509 138Q546 83 575 60T621 33T644 28Q644 28 644 28Q646 23 644 12T640 -2Q627 -3 620 -4T604 -5T576 -6Q528 -6 496 3T440 34T392 90Q384 102 368 127T332 183T294 244T261 295Q260 297 257 298T252
299Q247 299 242 293L213 142Q212 138 212 134T210 126Q205 101 202 82T202 50Q203 44 214 40T238 35T257 32Q259 27 257 14T250 -4Q225 -1 188 1T121 3Q93 3 56 1T-9 -4Q-11 1 -8 14T-1 32Q5 33 18 34T44 40T60 50Q68 65 73 88T85 142L155 501Q156 505 156 509T158
517Q163 542 166 561T166 593Q165 600 154 603T130 608T111 610Q109 615 111 628T118 646Q144 643 181 642T247 640Q276 640 312 641T376 646Q378 642 376 629T369 610Q363 610 350 609T324 604T308 593Q300 578 294 556T282 501L249 329Q284 355 312 377T360 418Q393
448 416 469T461 510T506 557Q515 567 517 575T521 589Q523 600 514 604T494 610T475 611Q473 617 474 628T479 646Q504 645 538 643T597 640Q659 640 710 646Q711 641 709 629T702 612Q698 612 679 609T635 596T591 569Q591 569 569 549T513 497T440 431T371 367Q362
358 366 352Q393 310 415 276T460 210T509 138Z" />
<glyph unicode="L" glyph-name="L" horiz-adv-x="534" d="M212 138Q212 137 211 134Q209 123 205 99T204 61Q206 51 224 46T259 41H319Q345 41 368 49T410 73Q442 103 477 166Q480 172 491 172Q498 172 507 170T517 166Q504 140 488 109T458 49T436 -2H121Q73
-2 38 -2T-8 -3Q-10 2 -8 15T-1 33Q5 34 18 35T45 40T61 50Q69 65 74 88T85 142L155 501Q156 505 156 509T158 517Q163 542 166 561T166 593Q165 600 154 603T130 608T111 610Q109 615 111 628T118 646Q144 643 181 642T247 640Q276 640 312 641T376 646Q378 642
376 629T369 610Q363 610 350 609T324 604T308 593Q300 578 294 556T282 501L212 138Z" />
<glyph unicode="M" glyph-name="M" horiz-adv-x="838" d="M236 641Q259 641 281 643T332 646Q338 623 347 579T369 478T396 358T423 232Q423 232 424 231T426 230Q427 230 429 232T431 236Q431 236 442 255T471 307T511 378T555 457T596 533Q607 554 619 579T639
624T647 643Q651 643 671 642T714 641T745 640Q768 640 796 642T852 646Q854 643 854 629T849 609Q844 609 826 607T799 599Q791 594 787 587T779 559Q775 534 767 485T749 375T730 255T713 148Q709 120 706 95T706 50Q708 43 719 39T743 34T759 32Q761 25 760
15T755 -4Q728 -2 695 1T632 4Q601 4 561 1T488 -4Q486 -1 488 12T494 32Q500 32 513 34T541 40T560 51Q571 66 575 85Q577 93 580 112T585 145L642 485Q643 487 644 499T641 511Q639 511 635 504L384 39Q382 35 374 25T357 7T338 -2Q336 -2 334 -2T330 0L226 511Q212
450 203 408T186 334T173 273T159 211T141 131Q137 115 134 92T131 63Q132 53 149 46T184 36T205 32Q206 27 205 16T199 -4Q172 -2 146 1T89 4Q58 4 32 1T-27 -4Q-28 1 -27 12T-21 31Q-15 31 2 34T37 46T63 66Q66 71 71 88T82 125T90 152Q98 186 109 234T132 334T156
434T175 517T187 567Q188 572 188 578T186 589Q182 597 163 603T131 610Q128 616 132 630T138 646Q169 645 187 643T236 641Z" />
<glyph unicode="N" glyph-name="N" horiz-adv-x="698" d="M215 640Q239 640 266 641T316 646Q324 618 346 573T399 472T464 357T529 242Q531 247 534 259T539 282L574 465Q578 484 582 510T588 560T588 590Q586 599 571 603T541 609T519 611Q518 611 520 625T526
647Q557 646 580 643T635 640Q665 640 694 643T752 647Q753 643 751 631T742 610Q739 610 722 609T687 604T663 588Q660 581 653 559T640 512T629 468L565 136Q557 93 553 65T543 -1Q541 -3 531 -4T519 -5Q513 -5 507 1T496 18L220 507L152 153Q147 127 145 99T143
59Q145 50 160 44T193 36T213 33Q216 26 213 14T208 -4Q181 -2 153 1T94 4Q63 4 39 1T-18 -4Q-20 3 -16 17T-10 32Q-4 32 12 35T45 43T67 58Q74 69 83 98T97 156Q109 220 120 274T142 383T165 502Q173 542 172 559T165 590Q162 597 151 601T127 607T109 610Q107
610 107 618T109 635T114 646Q134 645 159 643T215 640Z" />
<glyph unicode="O" glyph-name="O" horiz-adv-x="688" d="M414 651Q474 651 520 628T598 565T646 479T663 384Q663 290 628 217T537 94T415 17T288 -10Q220 -10 166 26T80 123T48 255Q48 346 82 419T170 544T289 623T414 651ZM393 609Q342 609 304 575T240 484T201
363T188 238Q188 182 201 135T243 60T318 32Q368 32 406 66T469 155T508 275T522 400Q522 456 508 503T466 580T393 609Z" />
<glyph unicode="P" glyph-name="P" horiz-adv-x="543" d="M559 454Q548 396 510 357T422 299T326 279Q307 279 296 284T280 294Q277 296 274 304T270 316Q270 323 275 323Q287 319 305 319Q328 319 352 336T396 380T422 440Q431 484 425 521T401 582T352 605Q336
605 323 604T305 594Q300 585 297 570T289 534L213 142Q212 138 212 134T210 126Q205 101 202 82T202 50Q203 44 214 40T238 35T257 32Q259 27 257 14T250 -4Q225 -1 188 1T121 3Q93 3 56 1T-9 -4Q-11 1 -8 14T-1 32Q5 33 18 34T44 40T60 50Q68 65 73 88T85 142L155
501Q156 505 156 509T158 517Q163 542 166 561T166 593Q165 600 154 603T129 607T110 608Q108 613 111 627T118 645Q148 643 183 643T247 642Q276 642 312 643T388 645Q445 645 487 619T549 550T559 454Z" />
<glyph unicode="Q" glyph-name="Q" horiz-adv-x="689" d="M415 651Q475 651 521 628T599 565T647 479T664 384Q664 306 641 244T578 136T491 58T396 10Q435 -12 465 -30T528 -60T608 -71Q625 -71 639 -68T658 -64Q670 -64 677 -74Q673 -78 656 -88T616 -109T568
-129T522 -137Q483 -137 449 -124T381 -91T310 -49T229 -8Q144 27 97 97T49 255Q49 346 83 419T171 544T290 623T415 651ZM394 609Q343 609 305 575T241 484T202 363T189 238Q189 182 202 135T244 60T319 32Q369 32 407 66T470 155T509 275T523 400Q523 456 509
503T467 580T394 609Z" />
<glyph unicode="R" glyph-name="R" horiz-adv-x="629" d="M247 642Q276 642 312 643T388 645Q445 645 485 621T542 552T548 447Q542 415 522 391T476 350T426 322T387 309Q405 273 416 250T436 208T456 171T483 127Q510 85 539 64T591 35T621 27Q623 22 622 10T619
-4Q606 -5 601 -6T588 -7T561 -8Q505 -8 469 3T412 32T379 67T361 97L268 277Q268 277 264 284T255 292H242L213 142Q212 138 212 134T210 126Q205 101 202 82T202 50Q203 44 214 40T238 35T257 32Q259 27 257 14T250 -4Q225 -1 188 1T121 3Q93 3 56 1T-9 -4Q-11
1 -8 14T-1 32Q5 33 18 34T44 40T60 50Q68 65 73 88T85 142L155 501Q156 505 156 509T158 517Q163 542 166 561T166 593Q165 600 154 603T129 607T110 608Q108 613 111 627T118 645Q148 643 183 643T247 642ZM249 330H291Q330 330 362 356T411 438Q419 464 421
493T417 547T396 589T352 605Q336 605 323 604T305 594Q300 585 297 570T289 534L249 330Z" />
<glyph unicode="S" glyph-name="S" horiz-adv-x="482" d="M324 654Q365 654 398 646T472 627Q468 588 463 549T450 465Q444 459 439 459Q439 459 438 459Q434 459 424 459T413 466Q414 487 410 512T394 560T365 598T320 613Q294 613 266 595T227 528Q221 498 236
470T278 417T328 372Q331 370 334 368T340 362Q364 342 387 319T421 260T423 171Q413 118 376 77T290 13T190 -10Q150 -10 106 -2T22 16Q22 38 23 72T27 137T32 182Q36 187 47 191T62 195Q71 195 71 188Q70 168 77 142T98 90T135 48T189 31Q224 31 254 52T295 126Q301
157 286 185T247 235T203 275Q200 278 197 280T191 285Q189 287 184 291Q157 314 134 338T99 396T97 478Q107 529 143 568T228 631T324 654Z" />
<glyph unicode="T" glyph-name="T" horiz-adv-x="582" d="M516 642Q549 642 567 646T595 655T613 660Q618 660 620 660T624 657L613 478Q611 476 602 474T586 471Q578 471 578 476Q580 508 571 536T545 581T505 599H420L331 142Q330 138 330 134T328 126Q323 101
320 82T320 50Q321 44 332 40T356 35T375 32Q377 27 375 14T368 -4Q343 -1 306 1T240 3Q212 3 175 1T110 -4Q108 1 110 14T117 32Q123 33 136 34T163 40T179 50Q187 65 192 88T204 142L293 599H208Q185 599 161 582T118 536T87 476Q85 471 77 471Q71 471 63 473T53
478L111 657Q114 659 116 659T123 660Q132 660 140 656T165 647T214 642H516Z" />
<glyph unicode="U" glyph-name="U" horiz-adv-x="675" d="M229 640Q258 640 294 641T358 646Q360 642 358 629T351 610Q345 610 332 609T306 604T289 593Q281 578 276 556T264 501L230 322Q220 273 216 234T220 155Q229 112 251 93T298 68T340 62Q376 62 414 86T485
164T534 302L566 468Q572 500 576 536T577 587Q575 597 562 601T534 608T513 610Q511 615 513 628T520 646Q552 643 576 642T632 640Q662 640 687 642T740 646Q742 642 740 629T733 610Q727 610 712 609T681 603T659 587Q651 572 640 537T622 469L585 279Q566 180
519 116T409 22T281 -9Q224 -9 177 12T106 77Q87 113 85 165T97 294L137 501Q138 505 138 509T140 517Q145 542 148 561T148 593Q147 600 136 603T112 608T93 610Q91 615 93 628T100 646Q126 643 163 642T229 640Z" />
<glyph unicode="V" glyph-name="V" horiz-adv-x="612" d="M192 640Q221 640 258 641T322 646Q324 642 322 629T314 610Q308 610 295 609T269 602T254 584Q252 572 255 552T262 511Q270 472 279 428T298 340T316 261T328 204T333 182Q333 182 345 204T376 260T418
335T462 412T497 476T516 509Q526 528 537 549T552 587Q553 596 540 600T509 607T485 610Q484 610 483 610Q481 615 484 628T491 646Q523 643 544 642T597 640Q627 640 649 642T700 646Q702 642 700 629T693 610Q687 610 674 609T648 605T627 593Q614 578 601 557T573
512Q531 439 497 379T430 265T365 154T292 29Q284 16 266 3T240 -11Q234 -11 233 -7T230 3L129 498Q125 519 120 541T112 578Q109 591 98 597T75 607T56 610Q54 615 57 628T64 646Q90 643 127 642T192 640Z" />
<glyph unicode="W" glyph-name="W" horiz-adv-x="856" d="M195 640Q224 640 260 641T324 646Q326 642 324 629T317 610Q311 610 297 607T271 597T258 572Q258 568 259 550T264 511Q270 466 276 420T288 334T297 270T301 245Q301 245 312 267T343 325T384 403T427
487T466 561T492 610Q500 624 510 635T528 646Q532 646 535 631Q543 582 553 525T573 412T591 310T604 237T609 209Q609 209 618 228T643 279T676 347T711 418T740 476T756 509Q765 528 775 549T789 587Q790 596 777 600T748 607T724 610Q723 610 723 610Q721 615
724 628T731 646Q763 643 784 642T837 640Q867 640 890 642T941 646Q943 642 941 629T933 610Q927 610 914 609T888 605T867 593Q854 578 840 558T813 512Q779 443 750 386T694 274T637 164T573 39Q563 21 549 5T527 -11Q521 -11 518 -7T512 3L441 408Q441 408
429 384T396 320T351 232T301 135T254 43Q251 38 243 25T227 0T212 -11Q206 -11 203 -7T198 3L130 498Q128 520 126 533T119 576Q117 589 105 596T79 606T59 610Q56 615 59 628T66 646Q92 643 129 642T195 640Z" />
<glyph unicode="X" glyph-name="X" horiz-adv-x="643" d="M233 641Q267 641 302 643T365 646Q366 643 365 635T361 618T356 610Q346 610 327 606T305 590Q303 578 308 568L377 404Q403 432 434 464T491 525T527 570Q531 575 531 580Q533 593 514 601T471 610Q469
610 469 618T471 635T477 646Q500 643 535 642T596 640Q666 640 706 646Q707 643 706 635T703 618T698 610Q695 610 678 608T636 595T587 559L393 360Q413 314 433 266T472 177T503 108T520 74Q530 57 547 48T580 36T602 32Q604 25 602 14T595 -4Q577 -3 550 -2T496
1T450 2Q412 2 378 0T306 -4Q304 -1 305 7T309 24T314 32Q319 32 332 35T357 45T371 60Q372 64 370 70L287 267Q280 260 260 237T213 184T163 126T126 81Q116 68 115 64Q113 53 125 46T154 35T185 32Q187 27 186 16T181 -4Q159 -2 123 0T62 2Q27 2 0 0T-56 -4Q-58
1 -56 14T-49 32Q-45 32 -26 34T17 46T59 77L267 314L181 524Q173 544 164 566T146 596Q141 601 129 604T104 608T86 610Q84 610 84 618T87 635T93 646Q126 645 162 643T233 641Z" />
<glyph unicode="Y" glyph-name="Y" horiz-adv-x="562" d="M186 142L213 277Q214 285 211 297Q207 313 199 341T181 400T163 460T148 506T142 524Q135 544 132 553T124 578Q117 596 97 602T68 610Q66 615 68 628T75 646Q101 643 138 642T204 640Q233 640 269 641T333
646Q335 642 333 629T326 610Q320 610 307 609T281 602T266 584Q265 581 268 572Q269 569 269 568L336 353Q337 351 352 371T391 422T440 489T486 555Q490 561 492 564Q499 576 501 587Q502 596 490 600T462 607T439 610Q438 610 438 610Q436 615 438 628T445 646Q477
643 496 642T546 640Q576 640 598 642T649 646Q651 642 649 629T642 610Q636 610 623 609T594 602T570 586Q563 578 542 551T493 487T435 412T383 341T348 291Q340 280 339 272L313 142Q306 111 303 88T303 50Q304 44 315 40T338 35T357 32Q359 27 357 14T350 -4Q325
-1 288 1T222 3Q194 3 157 1T93 -4Q91 1 93 14T100 32Q106 33 119 34T145 40T161 50Q169 65 174 88T186 142Z" />
<glyph unicode="Z" glyph-name="Z" horiz-adv-x="593" d="M284 596Q236 596 207 576T161 525T127 463Q126 461 124 459T114 457Q107 457 99 458T89 462Q105 505 123 552T157 646Q162 645 179 644T216 642T253 641T275 640L402 641Q459 642 508 644T615 650Q618
649 619 638T618 618Q617 617 598 592T545 526T470 434T384 329T299 225T225 134T173 70T153 46H349Q403 46 442 80Q459 96 474 114T507 166Q510 172 520 172Q527 172 536 170T547 166Q535 140 520 110T490 51T466 1Q457 1 419 1T328 1T218 1T111 0T30 0T-1 0Q-10
0 -17 9T-21 21L451 596H284Z" />
<glyph unicode="[" glyph-name="bracketleft" horiz-adv-x="361" d="M126 713Q186 713 236 717T326 729Q331 729 332 723V720Q332 713 323 695Q323 694 323 694T322 694Q303 684 232 672Q225 671 220 670T212 668V-338Q216 -339 222 -340T238 -343Q267 -348 288
-353T322 -364Q328 -367 331 -379Q332 -382 332 -385T332 -390Q332 -396 326 -398Q245 -383 126 -383Q111 -381 108 -365Q108 -363 108 -362T107 -360V690Q107 705 122 712Q124 713 126 713Z" />
<glyph unicode="\" glyph-name="backslash" horiz-adv-x="344" d="M30 711Q40 711 48 710T62 705Q73 698 78 690L331 -196L329 -198Q327 -200 324 -201Q318 -203 313 -203Q292 -203 278 -196Q266 -190 264 -182L12 704Q13 711 30 711Z" />
<glyph unicode="]" glyph-name="bracketright" horiz-adv-x="361" d="M235 713Q238 713 240 712Q254 706 254 690V-360Q254 -361 254 -362T253 -365Q250 -381 235 -383Q116 -383 35 -398Q29 -396 29 -390Q29 -387 31 -379Q34 -366 39 -364Q52 -358 73 -353T123
-343Q133 -341 139 -340T149 -338V668Q146 669 141 670T129 672Q58 684 39 694Q39 694 39 694T38 695Q29 713 29 720Q29 721 29 721T30 723Q32 729 35 729Q75 722 125 718T235 713Z" />
<glyph unicode="^" glyph-name="asciicircum" horiz-adv-x="380" d="M182 630Q191 630 197 617Q217 579 233 550T266 494T304 429Q304 422 299 418T289 413Q272 431 254 452T219 493T192 526T182 539Q182 539 172 526T146 494T111 453T75 413Q71 413 66 417T60
429Q81 466 98 493T131 550T167 617Q174 630 182 630Z" />
<glyph unicode="_" glyph-name="underscore" horiz-adv-x="462" d="M-35 -34Q-35 -34 -32 -21T-24 4T-12 17H396Q398 17 398 11Q398 10 398 9Q398 5 395 -7T383 -38Q381 -42 378 -43T374 -44H-30Q-30 -44 -33 -43T-35 -34Z" />
<glyph unicode="`" glyph-name="grave" horiz-adv-x="197" d="M169 479Q164 480 147 488T106 507T61 533T25 560T10 583Q10 603 25 613T54 623Q77 623 84 616Q95 606 110 587T141 547T166 510T178 490Q177 486 174 484T169 479Z" />
<glyph unicode="a" glyph-name="a" horiz-adv-x="477" d="M311 438Q337 438 368 432T415 421L354 129Q353 126 352 114T351 97Q351 90 354 83T364 76Q375 76 391 90T420 118T434 136Q439 136 443 125T447 109Q441 97 424 78T383 39T336 6T292 -8Q267 -8 249 8T231
57Q231 60 231 65T233 75Q234 81 235 86T237 94Q227 76 205 52T154 11T95 -7Q54 -7 33 28T11 112Q11 178 40 236T114 340T212 412T311 438ZM256 385Q231 385 209 365T170 310T144 233T134 148Q134 113 143 96T169 79Q186 79 205 107T243 181T271 274L290 373Q280
385 256 385Z" />
<glyph unicode="b" glyph-name="b" horiz-adv-x="454" d="M186 328Q200 349 227 375T284 419T338 438Q379 438 403 410T427 329Q427 260 400 200T329 93T237 20T147 -6Q101 -6 68 24T34 104Q34 114 36 131T40 158L116 547Q119 561 122 576T125 599Q125 608 114
612T90 616T67 617Q66 617 65 617Q63 620 64 631T69 646Q89 648 116 652T169 662T216 672T245 680Q249 678 250 672T251 661Q251 657 249 644T244 616T238 588L186 328ZM273 353Q257 353 239 336T203 290T173 229T154 163Q149 136 148 107T154 58T179 38Q202 38
224 64T263 131T291 216T301 295Q301 313 296 333T273 353Z" />
<glyph unicode="c" glyph-name="c" horiz-adv-x="368" d="M260 438Q289 438 312 432T346 417Q351 410 355 398T360 368Q360 346 344 328T306 309Q288 309 276 320T256 345Q249 358 239 374T213 390Q200 390 187 370T162 317T145 245T138 166Q138 117 153 96T198
75Q220 75 242 90T279 120T296 137Q302 137 305 127T309 111Q303 103 286 84T243 45T189 9T132 -6Q103 -6 76 8T32 52T15 128Q15 185 36 240T93 340T172 411T260 438Z" />
<glyph unicode="d" glyph-name="d" horiz-adv-x="475" d="M324 547Q326 561 329 576T333 599Q333 608 322 612T298 616T275 617Q274 617 273 617Q271 620 272 631T277 646Q297 648 324 652T377 662T424 672T453 680Q457 678 458 672T459 661Q459 657 457 644T452
616T446 588L354 129Q353 126 352 114T350 97Q350 90 353 83T363 76Q374 76 390 90T419 118T433 136Q438 136 442 125T446 109Q440 97 423 78T382 39T335 6T291 -8Q259 -8 242 16Q238 23 234 32T230 57Q230 63 232 75T236 94Q226 76 204 52T153 11T94 -7Q53 -7
32 28T10 112Q10 173 35 228T102 329T192 402T286 438Q290 439 297 438Q301 438 303 438L324 547ZM280 345Q280 367 274 376T255 385Q230 385 208 365T169 310T143 233T133 148Q133 113 142 96T168 79Q180 79 196 98T227 147T254 211T270 274Q270 274 272 289T277
321T280 345Z" />
<glyph unicode="e" glyph-name="e" horiz-adv-x="384" d="M262 438Q287 438 312 430T353 403T370 349Q370 319 353 293T307 247T247 213T186 192T139 184Q138 182 138 173T137 159Q137 141 141 122T159 89T196 75Q213 75 229 84T260 106T284 128T295 139Q302 139
306 127T310 109Q305 101 285 83T238 44T181 9T128 -6Q76 -6 46 31T16 137Q16 191 38 244T97 342T176 412T262 438ZM142 221Q156 221 175 233T212 265T242 311T254 364Q254 378 250 390T229 402Q211 402 196 382T170 331T151 270T142 221Z" />
<glyph unicode="f" glyph-name="f" horiz-adv-x="310" d="M335 679Q360 679 379 673T407 661Q411 655 413 647T416 629Q416 611 406 596T379 581Q355 581 338 604Q331 614 324 624T302 634Q280 634 265 582T226 414H323Q326 414 327 410T328 402Q328 395 325 385T317
369H217Q217 369 212 338T199 259T181 157T163 57Q148 -23 111 -84T28 -179T-57 -213Q-82 -213 -101 -207T-129 -195Q-133 -189 -135 -181T-138 -163Q-138 -145 -128 -130T-101 -115Q-78 -115 -60 -139Q-53 -149 -45 -158T-23 -168Q-4 -168 6 -145T26 -73T50 53L104
369H41Q39 369 39 372Q39 377 46 387T64 405T86 414H112Q124 474 150 523T210 606T277 660T335 679Z" />
<glyph unicode="g" glyph-name="g" horiz-adv-x="433" d="M355 385Q358 381 370 361T383 302Q383 268 369 241T334 193T289 158T248 137Q235 132 220 128T195 119T184 103Q184 94 202 86T249 69T304 45T350 11T369 -39Q369 -85 336 -127T247 -195T118 -221Q38
-221 -9 -187T-56 -107Q-56 -81 -42 -63T-7 -32T36 -11T77 4Q77 4 68 8T48 18T33 27Q27 33 23 37T19 55Q19 64 34 77T72 103T118 126T160 141Q130 149 103 165T58 207T40 271Q40 320 64 359T129 423T218 447Q247 447 270 440T311 424Q316 422 337 426T375 434Q382
435 387 436T395 438Q402 436 413 430T434 416T444 402Q444 397 440 391T429 385H355ZM268 -110Q268 -95 252 -81T212 -54T161 -31T112 -14Q86 -28 72 -43T58 -82Q58 -129 91 -151T168 -174Q187 -174 210 -167T251 -146T268 -110ZM229 409Q205 410 188 389T162
336T151 271Q150 237 158 207T194 174Q216 173 233 191T261 237T273 295Q274 318 271 344T258 389T229 409Z" />
<glyph unicode="h" glyph-name="h" horiz-adv-x="492" d="M241 588Q241 588 237 569T227 518T214 451T201 384T191 331T186 307Q184 298 182 287T178 268Q189 293 209 322T253 377T301 421T343 438Q384 438 398 417T413 354Q413 338 410 313T402 265T394 228L375
129Q374 126 373 114T371 97Q371 90 374 83T385 76Q396 76 411 90T440 118T454 136Q459 136 463 125T468 109Q462 97 445 78T404 39T356 6T312 -8Q288 -8 270 8T251 62Q251 73 255 93T260 120L282 236Q284 242 286 258T291 290T294 311Q294 319 290 325T278 331Q268
331 250 311T212 257T174 179T146 89L127 0Q120 -2 100 -4T72 -6Q64 -6 44 -4T15 0Q16 6 22 38T38 120T58 226T79 339T99 441T113 517T119 547Q122 561 125 576T128 599Q128 608 117 612T93 616T70 617Q69 617 68 617Q66 620 67 631T72 646Q92 648 119 652T172
662T219 672T248 680Q252 678 253 672T254 661Q254 657 252 642T246 611T241 588Z" />
<glyph unicode="i" glyph-name="i" horiz-adv-x="302" d="M104 302Q105 305 106 317T108 334Q108 341 105 347T94 354Q84 354 68 341T39 313T24 295Q19 295 15 306T11 321Q17 333 34 352T73 391T118 424T162 438Q191 438 209 421T228 369Q228 359 225 339T219
311L183 129Q182 126 181 114T179 97Q179 90 182 83T192 76Q203 76 219 90T248 118T262 136Q267 136 271 125T275 109Q269 97 252 78T211 39T164 6T120 -8Q96 -8 78 8T59 62Q59 73 62 93T67 120L104 302ZM208 671Q233 671 249 654T265 610Q265 578 242 553T188
527Q163 527 148 545T132 589Q132 621 154 646T208 671Z" />
<glyph unicode="j" glyph-name="j" horiz-adv-x="279" d="M113 302Q114 305 116 317T118 334Q118 341 115 347T104 354Q94 354 78 341T49 313T34 295Q29 295 25 306T21 321Q27 333 44 352T83 391T128 424T172 438Q201 438 219 421T237 369Q237 359 234 339T229
311Q229 311 226 292T216 242T204 178T191 117Q179 56 158 12T106 -73Q90 -94 64 -117T9 -161T-43 -196T-77 -213Q-81 -213 -83 -206T-86 -191Q-34 -151 -5 -113T42 -25T74 98L113 302ZM230 673Q255 673 271 655T287 611Q287 579 265 554T211 528Q186 528 170 546T154
590Q154 622 176 647T230 673Z" />
<glyph unicode="k" glyph-name="k" horiz-adv-x="491" d="M367 438Q410 438 428 420T447 368Q447 336 420 308T355 259T279 225Q285 207 296 183T320 135T349 96T381 80Q393 80 406 91T431 116T447 135Q455 135 458 124T461 109Q457 99 442 81T406 43T360 10T313
-4Q285 -4 262 18T220 73T188 142T167 203Q161 176 155 141T142 74T131 21T127 0Q120 -2 100 -4T72 -6Q64 -6 44 -4T15 0Q16 6 22 38T38 120T58 226T79 339T99 441T113 517T119 547Q122 561 125 576T128 599Q128 608 117 612T93 616T70 617Q69 617 68 617Q66 620
67 631T72 646Q92 648 119 652T172 662T219 672T248 680Q252 678 253 672T254 661Q254 657 252 642T246 611T241 588L193 333Q198 342 214 359T254 395T307 425T367 438ZM294 365Q272 365 251 350T213 312T186 271T175 242Q206 242 239 254T297 287T321 334Q321
342 316 353T294 365Z" />
<glyph unicode="l" glyph-name="l" horiz-adv-x="276" d="M122 547Q124 561 127 576T131 599Q131 608 120 612T96 616T73 617Q72 617 71 617Q69 620 70 631T75 646Q95 648 122 652T175 662T222 672T251 680Q255 678 256 672T257 661Q257 657 255 644T250 616T244
588L154 129Q153 125 152 113T150 97Q150 90 153 83T164 76Q175 76 190 90T219 118T233 136Q238 136 242 125T247 109Q241 97 224 78T183 39T136 6T92 -8Q68 -8 49 8T30 62Q30 73 34 93T39 120L122 547Z" />
<glyph unicode="m" glyph-name="m" horiz-adv-x="737" d="M505 120Q510 142 516 169T526 216T530 236Q532 242 534 258T539 290T542 311Q542 319 538 325T526 331Q516 331 498 311T460 257T423 179T395 89L375 0Q368 -2 348 -4T320 -6Q312 -6 292 -4T263 0L313
236Q315 242 317 258T322 290T325 311Q325 319 322 325T310 331Q300 331 282 311T244 257T206 179T178 89L158 0Q151 -2 132 -4T104 -6Q96 -6 76 -4T46 0L104 302Q105 305 106 317T108 334Q108 341 105 347T94 354Q84 354 68 341T39 313T24 295Q19 295 15 306T11
321Q17 333 34 352T73 391T118 424T162 438Q191 438 209 421T228 369Q228 359 225 339T219 311Q218 302 214 285T209 268Q220 293 240 322T284 377T332 421T374 438Q415 438 429 417T444 354Q444 342 443 325T438 290Q456 323 483 357T540 414T591 438Q632 438
646 417T661 354Q661 336 658 312T650 264T642 228Q638 210 631 180T620 129Q619 122 618 112T616 97Q616 90 619 83T630 76Q641 76 656 90T685 118T699 136Q704 136 708 125T713 109Q707 97 690 78T649 39T602 6T558 -8Q534 -8 515 8T496 62Q496 73 500 93T505
120Z" />
<glyph unicode="n" glyph-name="n" horiz-adv-x="523" d="M219 311Q218 303 214 287T209 268Q220 293 240 322T284 378T332 421T374 438Q415 438 429 417T444 354Q444 338 441 313T433 265T425 228L406 129Q405 126 404 114T402 97Q402 90 405 83T416 76Q427 76
442 90T471 118T485 136Q490 136 494 125T499 109Q493 97 476 78T435 39T388 6T344 -8Q320 -8 301 8T282 62Q282 73 286 93T291 120L313 236Q315 242 317 258T322 290T325 311Q325 319 322 325T310 331Q300 331 282 311T244 257T206 179T178 89L158 0Q151 -2 132
-4T104 -6Q96 -6 76 -4T46 0L104 302Q105 305 106 317T108 334Q108 341 105 347T94 354Q84 354 68 341T39 313T24 295Q19 295 15 306T11 321Q17 333 34 352T73 391T118 424T162 438Q191 438 209 421T228 369Q228 359 225 339T219 311Z" />
<glyph unicode="o" glyph-name="o" horiz-adv-x="444" d="M267 438Q308 438 340 425T392 380T411 290Q411 237 388 185T326 89T243 20T154 -6Q93 -6 54 31T15 139Q15 192 37 245T97 341T178 411T267 438ZM256 399Q229 399 207 372T170 301T146 210T137 122Q137
111 138 90T147 51T170 33Q197 33 219 60T256 131T280 220T289 305Q289 321 288 343T280 382T256 399Z" />
<glyph unicode="p" glyph-name="p" horiz-adv-x="484" d="M362 438Q409 438 433 405T458 320Q458 259 431 201T361 96T269 23T175 -5Q171 -5 163 -4T148 0L123 -123Q120 -136 120 -150Q120 -154 123 -162T134 -173Q145 -176 159 -176T178 -176Q180 -176 180 -176Q183
-177 182 -190T176 -206Q166 -206 158 -206T142 -205Q117 -205 83 -206T13 -208T-51 -214Q-55 -213 -54 -199T-49 -183Q-23 -183 -10 -167Q-1 -155 6 -125L79 227L32 180Q29 184 27 192T25 206Q25 214 30 221T40 233L90 280L119 434Q125 436 137 436T161 437T179
438Q187 438 207 437T235 431Q234 422 231 408T226 382T222 364Q236 379 259 396T309 426T362 438ZM294 356Q272 356 251 344T214 315Q212 305 207 278T195 221T185 168T180 146Q169 90 176 64T202 38Q228 38 251 65T293 134T321 218T332 292Q332 316 325 336T294
356Z" />
<glyph unicode="q" glyph-name="q" horiz-adv-x="443" d="M349 -206Q342 -206 326 -206T293 -205T270 -205Q227 -205 188 -208T121 -215Q120 -214 120 -207T121 -192T125 -184Q146 -182 164 -172T186 -143L229 82Q219 65 198 44T149 8T93 -7Q64 -7 46 10T20 55T11
111Q11 170 37 228T108 333T205 409T314 438Q340 438 365 434T409 417L355 136Q355 135 351 116T342 66T330 2T318 -62T309 -111T305 -130Q304 -135 304 -140T303 -150Q303 -162 312 -169T353 -177Q356 -177 355 -190T349 -206ZM280 333Q282 342 281 354T275 375T256
385Q232 385 210 365T171 311T144 236T134 153Q134 113 144 96T167 79Q180 79 195 96T225 141T252 202T270 269Q274 289 275 301T280 333Z" />
<glyph unicode="r" glyph-name="r" horiz-adv-x="421" d="M366 438Q387 438 397 436T420 426Q426 419 431 408T436 383Q436 348 418 330T379 312Q364 312 354 319T334 330Q327 334 324 336T308 338Q298 338 280 317T243 260T206 180T178 89L158 0Q151 -2 132 -4T104
-6Q96 -6 76 -4T46 0L104 302Q105 305 106 317T108 334Q108 341 105 347T94 354Q84 354 68 341T39 313T24 295Q19 295 15 306T11 321Q17 333 34 352T73 391T118 424T162 438Q191 438 209 421T228 369Q228 359 225 339T219 311Q218 306 215 293T210 267T205 250Q215
283 233 316T275 377T322 421T366 438Z" />
<glyph unicode="s" glyph-name="s" horiz-adv-x="357" d="M218 438Q257 438 283 430T325 408Q332 401 334 388T336 369Q336 353 323 336T287 319Q269 319 254 334T229 364Q219 379 209 389T182 400Q166 400 155 388T143 355Q143 337 159 319T197 282T237 245Q254
229 273 205T292 134Q292 91 267 59T202 10T113 -7Q84 -7 56 1T11 23Q4 31 2 42T-1 61Q-1 80 12 96T46 113Q64 113 77 101T104 69Q117 52 128 42T157 32Q173 32 187 46T201 74Q201 96 184 116T143 156T101 197Q83 217 68 238T53 303Q53 342 74 372T133 420T218
438Z" />
<glyph unicode="t" glyph-name="t" horiz-adv-x="320" d="M115 414L130 492Q134 497 150 507T185 529T219 549T237 557Q246 557 254 551L229 414H314Q317 414 317 410T318 402Q318 383 309 369H220L173 129Q172 125 171 113T169 97Q169 90 172 83T183 76Q194 76
209 90T238 118T252 136Q257 136 261 125T266 109Q260 97 243 78T202 39T154 6T110 -8Q86 -8 68 8T49 62Q49 73 52 91T58 120L106 369H34Q32 369 32 372Q32 377 39 387T57 405T79 414H115Z" />
<glyph unicode="u" glyph-name="u" horiz-adv-x="520" d="M282 110Q285 126 288 140T294 162Q280 132 258 102T211 47T162 7T123 -8Q86 -8 74 11T62 76Q62 92 65 116T73 163T80 199Q86 229 91 250T100 302Q101 305 102 317T104 334Q104 341 101 347T90 354Q80
354 64 341T36 313T21 295Q16 295 12 306T7 321Q13 333 30 352T69 391T114 424T158 438Q187 438 205 421T224 369Q224 359 221 339T215 311Q214 307 211 289T203 248T195 210T192 194Q191 188 189 172T184 141T181 120Q181 113 184 107T196 100Q207 100 225 124T264
186T303 271T330 363L344 431Q352 433 371 435T398 437Q406 437 426 435T456 431L399 129Q398 125 397 113T396 97Q396 90 399 83T409 76Q420 76 436 90T465 118T479 136Q484 136 488 125T492 109Q486 97 469 78T428 39T381 6T337 -8Q313 -8 294 8T275 62Q275 67
277 80T282 110Z" />
<glyph unicode="v" glyph-name="v" horiz-adv-x="454" d="M230 109Q253 126 276 151T316 206Q332 237 336 260T340 300Q340 318 329 339T299 375Q299 393 310 407T336 429T363 438Q391 438 415 419T439 349Q439 318 421 280T372 202T306 126T235 60T171 13T126
-5Q116 20 108 65T95 167T90 283V326Q90 333 89 340T79 348Q72 348 59 336T35 311T22 295Q17 295 13 306T9 321Q16 333 32 352T71 391T116 424T160 438Q192 438 200 422T209 384V333Q209 280 212 231T221 148T230 109Z" />
<glyph unicode="w" glyph-name="w" horiz-adv-x="708" d="M447 396Q447 358 451 313T460 225Q466 179 472 146T481 109Q500 120 526 144T571 201Q587 229 591 254T595 295Q595 316 584 338T554 375Q554 393 565 407T591 429T618 438Q646 438 670 419T694 349Q694
318 676 280T629 203T565 126T494 60T429 13T381 -4Q371 10 364 39T350 100Q341 150 339 188Q327 164 303 135T248 78T185 28T127 -5Q117 20 108 65T94 167T89 283V326Q89 333 88 340T78 348Q71 348 58 336T34 311T21 295Q16 295 12 306T8 321Q15 333 31 352T70
391T115 424T159 438Q191 438 199 422T208 384V333Q208 280 211 233T220 154T229 118Q247 131 268 158T303 213Q314 233 323 261T337 315Q340 327 354 341T387 367T422 388T447 396Z" />
<glyph unicode="x" glyph-name="x" horiz-adv-x="499" d="M199 438Q219 438 230 422T248 384L274 290L313 366Q331 400 354 419T407 438Q425 438 446 433T478 418Q482 411 485 397T489 371Q489 352 476 332T436 312Q419 312 408 322T392 340Q388 348 382 356T370
364Q362 364 355 356T339 332L288 245L327 115Q332 101 338 89T357 76Q368 76 384 90T413 118T427 136Q432 136 436 125T440 109Q434 97 417 78T376 39T328 6T284 -8Q259 -8 246 12T224 57Q224 59 218 82T200 140L162 65Q144 31 121 12T68 -7Q45 -7 30 -2T3 11Q-2
16 -7 29T-12 58Q-12 78 1 99T40 120Q57 120 68 110T84 92Q89 85 94 76T105 67Q113 67 121 74T141 102L187 185L150 308Q148 315 141 331T118 348Q111 348 98 336T75 311T62 295Q57 295 53 306T48 321Q55 333 71 352T110 391T155 424T199 438Z" />
<glyph unicode="y" glyph-name="y" horiz-adv-x="489" d="M126 438Q159 438 182 415T219 353T242 268T253 177T256 94T257 35Q257 28 257 25Q270 41 287 70T321 137T349 216T360 297Q360 326 345 346T319 375Q319 392 329 406T355 429T385 438Q411 438 435 419T460
348Q460 291 435 228T368 101T274 -18T170 -118T69 -187T-11 -213Q-37 -213 -55 -198T-74 -152Q-74 -139 -65 -125T-45 -104Q-34 -111 -5 -123T52 -135Q83 -135 99 -127T122 -110T130 -98Q135 -84 136 -60T138 -9T139 39Q139 47 139 50Q139 92 135 143T122 240T100
317T69 348Q57 348 45 336T24 310T13 295Q7 296 3 307T-1 321Q3 328 16 347T49 387T88 423T126 438Z" />
<glyph unicode="z" glyph-name="z" horiz-adv-x="430" d="M166 439Q197 439 218 433T259 418Q273 412 292 406T340 399Q357 399 376 413T408 438Q423 438 425 428T429 411Q429 408 408 386T352 331T280 263T208 196T152 144T129 122Q133 124 146 127T170 130Q213
130 243 115Q256 109 273 101T307 93Q322 93 333 103T351 126T362 142Q370 142 374 133T380 118Q373 104 359 84T326 43T287 10T247 -3Q216 -3 195 3T154 19Q141 25 122 31T73 37Q57 37 37 23T5 -2Q-10 -2 -12 8T-16 25Q-16 29 5 51T61 105T133 174T205 241T262
293T284 314Q280 313 267 310T243 307Q223 307 204 310T170 321Q157 327 140 335T106 344Q92 344 81 334T62 312T51 295Q44 295 39 303T33 318Q40 332 54 352T87 393T126 426T166 439Z" />
<glyph unicode="{" glyph-name="braceleft" horiz-adv-x="397" d="M129 153V179Q212 227 199 293Q194 319 166 394Q140 462 142 533Q145 668 226 731Q249 749 261 734Q275 715 258 698Q194 631 197 557Q198 532 231 477Q284 391 266 294Q251 206 182 166Q251 126
266 38Q284 -59 231 -145Q198 -200 197 -225Q194 -299 258 -366Q275 -383 261 -402Q249 -417 226 -399Q145 -336 142 -201Q140 -130 166 -62Q194 13 199 39Q212 105 129 153Z" />
<glyph unicode="|" glyph-name="bar" horiz-adv-x="197" d="M125 -370Q125 -375 81 -384H78Q72 -384 72 -381Q72 -381 72 -381T73 -379V705L74 710Q75 711 76 711T78 713Q96 718 116 718Q124 718 124 712L125 -370Z" />
<glyph unicode="}" glyph-name="braceright" horiz-adv-x="397" d="M266 153Q183 105 196 39Q201 13 229 -62Q255 -130 253 -201Q250 -336 169 -399Q146 -417 134 -402Q120 -383 137 -366Q201 -299 198 -225Q197 -200 164 -145Q111 -59 129 38Q144 126 213 166Q144
206 129 294Q111 391 164 477Q197 532 198 557Q201 631 137 698Q120 715 134 734Q146 749 169 731Q250 668 253 533Q255 462 229 394Q201 319 196 293Q183 227 266 179V153Z" />
<glyph unicode="~" glyph-name="asciitilde" horiz-adv-x="525" d="M188 351Q220 351 244 343T290 325T336 307T393 299Q419 299 440 312T483 342Q487 340 487 327Q487 305 466 285T415 252T355 239Q323 239 299 247T252 265T206 283T149 291Q123 291 103 278T59
248Q55 250 55 263Q55 287 77 307T131 339T188 351Z" />
<glyph unicode="&#xa0;" glyph-name="uni00A0" horiz-adv-x="292" />
<glyph unicode="&#xa1;" glyph-name="exclamdown" horiz-adv-x="209" d="M101 -218Q79 -218 69 -199T58 -161Q58 -141 66 -42T91 241Q94 247 96 250T106 254Q110 253 114 251T120 243Q125 184 130 121T140 1T146 -99T149 -161Q149 -181 137 -199T101 -218ZM52
365Q52 387 67 403T104 420Q126 420 142 404T159 365Q159 343 143 328T104 312Q82 312 67 327T52 365Z" />
<glyph unicode="&#xa2;" glyph-name="cent" horiz-adv-x="396" d="M274 463Q279 463 294 462T309 455L302 436Q321 433 335 428T356 417Q361 410 365 398T370 368Q370 346 354 328T316 309Q300 309 289 318T269 339L180 81Q192 75 208 75Q230 75 252 90T289 120T306
137Q312 137 315 127T319 111Q314 103 297 85T256 47T205 12T150 -6L137 -44Q131 -44 117 -42T103 -35L114 -3Q78 6 52 38T25 128Q25 184 46 238T102 337T179 409T265 438L274 463ZM245 379Q235 390 223 390Q210 390 197 370T172 317T155 245T148 166Q148 135 154
115L245 379Z" />
<glyph unicode="&#xa3;" glyph-name="sterling" horiz-adv-x="463" d="M82 341H120Q119 354 119 364T121 382Q134 447 162 493T225 568T298 612T367 626Q391 626 401 619T423 602Q428 592 424 573T408 538T376 522Q360 522 351 529T336 546T322 563T299 571Q272
571 255 535T228 448Q223 421 223 396T225 348Q225 343 225 341H370Q376 336 372 327T362 310T352 300H226Q225 280 222 264Q211 209 183 173T135 119Q164 134 198 134Q215 134 235 124T279 103T325 92Q351 92 366 109T388 138Q391 140 395 138T402 131Q405 127
405 123T403 114Q403 113 403 112Q397 100 384 81T351 41T307 6T256 -8Q233 -8 214 1T176 21T137 41T91 50Q83 50 67 40T36 16T10 -6Q5 -6 2 4T0 21Q8 32 22 46T52 75T74 100Q90 127 100 159T118 227Q121 243 121 262T121 300H56Q54 303 59 313T71 332T82 341Z"
/>
<glyph unicode="&#xa4;" glyph-name="currency" horiz-adv-x="526" d="M400 444L464 498Q468 501 474 496Q480 491 486 479T493 455L428 400Q445 354 435 300Q423 241 384 194L422 138Q425 135 419 127Q413 119 401 111T375 98L338 151Q315 135 288 126T234 117Q205
117 181 127T139 156L81 107Q76 104 72 108Q66 113 60 125T53 150L111 200Q93 243 104 300Q118 366 160 413L123 468Q120 471 125 477Q130 485 144 494T171 508L208 454Q253 484 307 484Q336 484 359 474T400 444ZM249 151Q272 151 291 170T326 220T348 287Q357
332 352 369T332 428T292 450Q270 450 250 431T214 380T190 312Q181 267 186 231T209 173T249 151Z" />
<glyph unicode="&#xa5;" glyph-name="yen" horiz-adv-x="616" d="M136 214Q131 214 131 221Q131 241 146 257H230L232 269Q233 279 231 288Q227 304 219 330T202 388T183 446T169 491T163 509Q156 529 154 538T147 561Q140 578 121 584T93 592Q91 597 93 610T99
627Q124 624 160 622T225 620Q253 620 288 622T350 627Q352 623 350 610T343 592Q337 592 324 590T299 583T284 566Q283 564 286 559Q287 555 288 552L352 342Q354 340 370 361T409 415T458 484T504 548Q510 558 512 569Q514 578 501 582T473 589T451 592Q449 597
451 610T458 627Q489 624 507 622T556 620Q585 620 606 623T656 627Q658 623 656 610T649 592Q643 592 630 590T602 584T579 568Q572 560 552 534T504 472T448 399T397 331T363 282Q356 273 355 265L353 257H448Q451 257 451 250Q451 242 449 232T439 214H345L336
170H432Q435 170 435 163Q435 155 433 145T422 127H328Q322 100 320 81T320 48Q321 42 331 39T354 34T373 31Q375 26 373 14T366 -4Q341 -1 305 1T241 3Q213 3 178 1T116 -4Q114 1 116 13T123 31Q129 32 142 33T167 38T183 48Q190 61 194 80T205 127H119Q114 127
114 134Q114 154 129 170H213L222 214H136Z" />
<glyph unicode="&#xa6;" glyph-name="brokenbar" horiz-adv-x="205" d="M125 239Q125 234 104 229Q85 225 78 225H74Q73 225 73 226T73 227V705Q71 711 78 713Q96 718 117 718Q121 718 123 716Q125 714 125 713V239ZM73 92Q71 98 78 100Q93 104 117 104Q122 104
123 103Q125 101 125 100V-369Q125 -374 104 -379Q94 -381 88 -382T78 -384Q77 -384 76 -384T74 -383Q73 -383 73 -383T73 -382V92Z" />
<glyph unicode="&#xa7;" glyph-name="section" horiz-adv-x="430" d="M297 638Q318 638 337 630Q341 623 342 616T343 604Q343 594 332 582T308 569Q295 569 288 573T272 581Q266 584 259 586T241 589Q226 589 208 584T176 567T162 536Q162 514 182 484T230 425T281
374Q307 351 333 321T377 254T395 175Q395 151 383 122T351 65T312 13T276 -25Q252 -48 217 -62T135 -76Q114 -76 95 -68Q91 -60 90 -54T89 -43Q89 -32 100 -20T124 -8Q137 -8 144 -12T159 -20Q165 -23 172 -25T190 -27Q205 -27 224 -22T256 -5T270 25Q270 48 250
78T201 137T150 188Q125 212 99 242T55 308T37 387Q37 411 49 440T81 497T120 549T156 587Q180 610 216 624T297 638ZM313 49Q325 69 333 87T342 132Q342 173 326 208T284 273T232 327Q209 349 182 374T136 430T117 495Q117 503 118 510Q106 491 98 474T90 430Q90
390 106 355T147 289T199 234Q223 213 249 187T295 131T314 66Q314 57 313 49Z" />
<glyph unicode="&#xa8;" glyph-name="dieresis" horiz-adv-x="336" d="M267 614Q293 614 307 595T317 547Q312 519 289 499T240 479Q214 479 200 499T190 547Q195 575 218 594T267 614ZM95 614Q121 614 135 595T145 547Q140 519 118 499T69 479Q43 479 29 499T19
547Q24 575 46 594T95 614Z" />
<glyph unicode="&#xa9;" glyph-name="copyright" horiz-adv-x="643" d="M55 334Q55 389 75 437T132 522T217 580T321 601Q376 601 424 580T510 523T568 438T589 334Q589 279 568 231T510 146T425 88T321 67Q266 67 218 88T133 145T76 230T55 334ZM87 334Q87 269
118 216T203 130T322 98Q387 98 441 130T527 215T559 334Q559 399 527 452T441 538T322 570Q257 570 204 538T119 453T87 334ZM445 270Q445 269 442 255T434 226T426 209Q381 190 322 190Q283 190 252 208T202 258T183 328Q183 367 200 400T249 452T320 472Q342
472 373 468T430 453Q430 453 433 439T441 411T445 394Q445 390 440 388T430 385Q427 385 423 387Q422 394 414 406T386 428T332 438Q292 438 265 408T238 337Q238 298 254 273T295 235T341 222Q363 222 382 226T411 240Q420 248 422 260T426 272Q428 272 436 272T445
270Z" />
<glyph unicode="&#xaa;" glyph-name="ordfeminine" horiz-adv-x="389" d="M260 240Q242 240 228 249T214 280Q214 284 216 294Q217 298 217 301T218 306Q211 294 195 279T158 253T115 241Q85 241 70 264T54 321Q54 365 75 405T129 475T201 523T273 541Q293 541
316 537T350 529L307 341Q307 339 306 330T304 319Q304 315 306 311T314 306Q322 306 333 315T354 334T365 346Q369 344 372 335T373 319Q367 309 348 290T304 256T260 240ZM231 498Q207 498 187 477T156 420T144 346Q144 299 169 299Q181 299 195 318T223 368T243
431L257 490Q249 498 231 498Z" />
<glyph unicode="&#xab;" glyph-name="guillemotleft" horiz-adv-x="466" d="M386 90Q382 83 373 78T359 71Q357 73 339 96T285 154T198 228Q193 234 195 242Q197 251 203 257Q270 296 319 330T395 388T425 413Q429 412 437 408T446 395Q444 393 426 374T383 330T334
280T294 242Q304 229 319 205T349 156T374 111T386 90ZM217 90Q213 83 204 78T189 71Q187 73 169 96T116 154T29 228Q24 235 25 242Q27 251 33 257Q100 296 149 330T225 388T255 413Q259 412 267 408T276 395Q274 393 256 374T213 330T164 280T124 242Q134 229
149 205T179 156T205 111T217 90Z" />
<glyph unicode="&#xac;" glyph-name="logicalnot" horiz-adv-x="573" d="M504 410V165Q503 164 488 157T458 150Q458 150 453 151T445 157V355H50Q50 355 47 356T44 365Q44 365 45 376T50 398T59 410H504Z" />
<glyph unicode="&#xad;" glyph-name="uni00AD" horiz-adv-x="0" />
<glyph unicode="&#xae;" glyph-name="registered" horiz-adv-x="643" d="M55 397Q55 452 75 500T132 585T217 643T321 664Q376 664 424 643T510 586T568 501T589 397Q589 342 568 294T510 209T425 151T321 130Q266 130 218 151T133 208T76 293T55 397ZM87 397Q87
332 118 279T203 193T322 161Q387 161 441 193T527 278T559 397Q559 462 527 515T441 601T322 633Q257 633 204 601T119 516T87 397ZM315 540Q334 540 354 532T389 508T404 468Q404 446 388 427T350 400Q367 373 383 351T420 303Q430 292 440 287T467 280Q468 279
468 275T466 268Q466 266 466 266Q445 266 426 267T400 271Q396 273 389 276T373 289Q370 293 359 309T332 346T304 388Q302 393 292 393H277V317Q277 308 277 300T279 287Q280 283 292 282T308 280Q310 279 310 274T308 266Q295 267 281 267T255 268Q243 268 229
268T201 266Q200 268 200 273T201 280Q205 280 216 281T229 287Q231 292 231 299T231 317V490Q231 499 231 507T229 520Q228 524 217 525T201 527Q200 529 200 534T201 541Q214 540 229 540T257 539Q269 539 283 539T315 540ZM357 458Q357 486 346 504T300 523Q296
523 289 523T279 519Q278 515 278 507T277 488V411H295Q321 411 339 422T357 458Z" />
<glyph unicode="&#xaf;" glyph-name="overscore" horiz-adv-x="254" d="M237 479H15Q15 479 14 481T12 487Q12 492 16 506T24 521H243Q248 521 248 514Q248 510 246 498T237 479Z" />
<glyph unicode="&#xb0;" glyph-name="degree" horiz-adv-x="274" d="M86 524Q95 569 130 600T207 632Q249 632 272 601T287 524Q281 494 263 470T219 430T165 415Q123 415 100 447T86 524ZM128 524Q123 498 136 479T174 460Q198 460 219 479T245 524Q250 550 237
569T200 588Q176 588 155 569T128 524Z" />
<glyph unicode="&#xb1;" glyph-name="plusminus" horiz-adv-x="535" d="M48 353H239V548Q251 553 263 556T281 559Q289 559 291 556T294 553V353H493Q502 353 502 341Q502 329 497 317T486 298H294V101Q285 94 273 92T252 90Q239 90 239 99V298H39Q39 298 36 299T33
308Q33 311 37 329T48 353ZM48 61H493Q502 61 502 49Q502 37 497 25T486 6H39Q39 6 36 7T33 16Q33 19 37 37T48 61Z" />
<glyph unicode="&#xb2;" glyph-name="uni00B2" horiz-adv-x="349" d="M313 352Q305 331 297 302T277 248H50Q46 248 42 252T38 260Q67 292 106 330T175 408Q195 436 208 463T222 518Q222 549 206 568T158 588Q125 588 106 572T73 540Q70 537 63 545T56 557Q73
586 104 609T169 632Q220 632 252 603T285 527Q285 503 274 479T241 429Q222 406 188 372T118 302H236Q256 302 267 313T285 336T294 354Q295 356 299 357Q301 357 306 356T313 352Z" />
<glyph unicode="&#xb3;" glyph-name="uni00B3" horiz-adv-x="310" d="M158 631Q189 631 216 613T243 556Q243 524 223 504T187 475Q200 475 220 464T257 431T274 377Q274 334 252 304T194 259T115 243Q99 243 79 247T50 258Q50 258 44 264T38 281Q38 296 47 304T68
313Q81 313 88 304T104 285Q118 271 142 271Q173 271 192 292T212 359Q212 395 191 419T142 443Q129 443 118 440T103 436Q100 439 98 446Q96 453 98 456Q134 464 161 485T188 543Q188 562 173 577T139 593Q121 593 107 586T83 569T70 557Q66 559 64 565T62 572Q69
583 81 596T113 620T158 631Z" />
<glyph unicode="&#xb4;" glyph-name="acute" horiz-adv-x="197" d="M29 479Q27 481 24 483T20 490Q21 494 31 510T57 547T87 587T114 616Q121 623 144 623Q157 623 172 613T188 583Q188 573 174 560T137 533T92 508T52 488T29 479Z" />
<glyph unicode="&#xb5;" glyph-name="mu" horiz-adv-x="516" d="M168 436Q173 436 185 430T208 415T217 399Q216 392 208 359T175 260L161 218Q150 160 158 124T188 88Q226 88 247 122T282 199Q283 201 287 224T299 281T313 346T324 401T329 423Q340 431 353 434T374
436Q404 434 419 422T433 399Q431 386 419 346T382 240Q381 236 377 227T373 218Q365 178 361 146T363 95T388 76Q404 76 422 87T446 106Q448 106 450 102T454 94Q455 91 455 84T453 74Q438 42 411 19T358 -4Q338 -3 325 16T308 64T305 125Q286 91 265 61T220 11T165
-9Q148 -9 140 5T129 38T124 74Q124 71 122 64T118 47Q112 25 105 -6T94 -71T91 -136T106 -187Q103 -191 94 -199T73 -215T54 -222Q32 -222 21 -206T5 -166T1 -124Q1 -110 9 -73T29 13T56 111T81 199Q85 216 89 245T96 291Q98 298 102 321T111 371T120 416Q125
422 142 429T168 436Z" />
<glyph unicode="&#xb6;" glyph-name="paragraph" horiz-adv-x="472" d="M353 292V113Q353 110 353 107T353 101Q353 82 353 67T357 41Q359 36 372 32T400 25T421 22Q423 22 423 10T421 -4Q390 -3 373 -2T338 1T290 2Q256 2 220 0T154 -4Q153 1 153 10T156 22Q160
22 174 24T201 31T216 41Q220 53 220 72T221 113V280Q174 280 139 298T81 343T45 402T33 458Q33 511 58 551T121 614T200 637Q222 637 231 637T247 635T263 634T295 633Q344 633 378 635T413 638Q417 634 417 623T412 609Q401 609 381 604T356 590Q355 585 355
575T354 527V331Q357 331 368 334T390 340T401 344Q411 344 411 338Q410 331 399 318T383 302Q364 293 353 292ZM314 325V592Q311 595 303 596T286 597Q279 597 272 597T259 591V320Q262 320 274 320T299 322T314 325ZM313 285Q303 284 287 283T259 281V113Q259
91 259 72T262 41Q263 36 271 36T285 35Q286 35 286 35Q291 35 301 36T312 41Q314 51 314 65T314 95Q314 100 314 104T314 113L313 285Z" />
<glyph unicode="&#xb7;" glyph-name="middot" horiz-adv-x="292" d="M128 244Q128 267 140 286T171 318T211 330Q234 330 249 314T265 273Q265 252 253 232T223 198T184 184Q159 184 144 201T128 244Z" />
<glyph unicode="&#xb8;" glyph-name="cedilla" horiz-adv-x="396" d="M199 -4H227L205 -28H221Q239 -28 256 -41T274 -74Q274 -98 258 -117T214 -148T157 -159Q147 -159 134 -156T115 -149Q111 -145 111 -141Q111 -129 116 -121T129 -113Q139 -113 145 -119T160
-131T182 -137Q200 -137 212 -126T224 -98Q224 -81 215 -72T196 -63Q188 -63 182 -65T168 -71Q167 -71 160 -68T153 -60Q153 -56 166 -43T199 -4Z" />
<glyph unicode="&#xb9;" glyph-name="uni00B9" horiz-adv-x="285" d="M120 506Q120 540 115 548T102 556Q93 556 78 551T47 540Q43 542 41 547T38 557Q38 563 41 564Q119 596 152 616T188 637H189Q194 637 197 627T201 614Q201 614 197 589T192 535V332Q192 317
193 308T200 286Q202 283 212 280T235 274T251 272Q253 272 253 261T251 247Q223 248 205 249T157 250Q129 250 109 249T60 247Q56 249 56 260T60 271Q66 271 78 273T102 278T114 285Q118 295 119 309T120 330V506Z" />
<glyph unicode="&#xba;" glyph-name="ordmasculine" horiz-adv-x="378" d="M191 541Q234 541 268 521T322 468T342 394Q342 354 322 319T268 263T191 241Q149 241 114 261T58 316T37 390Q37 432 57 466T113 520T191 541ZM183 518Q155 518 138 500T112 456T104
401Q104 369 114 338T146 286T199 265Q226 265 242 283T266 328T274 382Q274 414 265 445T235 497T183 518Z" />
<glyph unicode="&#xbb;" glyph-name="guillemotright" horiz-adv-x="466" d="M73 395Q78 403 88 407T102 413Q104 411 122 388T175 331T262 257Q267 251 265 242Q264 236 256 228Q189 190 141 155T65 96T35 71Q31 72 24 77T14 90Q16 92 33 111T76 155T125 205T165
242Q155 255 140 279T110 329T85 374T73 395ZM243 395Q248 403 257 407T271 413Q273 411 291 388T345 331T432 257Q437 251 435 242Q434 236 426 228Q359 190 310 155T234 96T204 71Q200 72 193 77T184 90Q186 92 203 111T246 155T295 205T335 242Q325 255 310
279T280 329T255 374T243 395Z" />
<glyph unicode="&#xbc;" glyph-name="onequarter" horiz-adv-x="682" d="M592 397Q597 397 599 394T601 386V143H635Q642 137 644 126T641 104H604V0Q603 -1 594 -2T574 -3Q564 -3 556 -2T543 2V104H382Q378 105 376 108T372 119L572 386Q575 390 580 393T592
397ZM170 521V328Q170 301 177 280Q178 277 188 274T210 269T226 267Q230 263 229 255T227 245Q208 246 197 246T174 247T143 248Q115 248 99 247T53 245Q49 247 49 255T53 267Q62 267 81 271T102 281Q106 291 107 305T109 326V508Q109 522 105 532T93 542Q85 542
73 537T46 527Q42 529 39 535T33 545Q47 554 75 570T165 623Q178 619 178 607Q178 607 176 594T172 560T170 521ZM182 -12Q175 -10 173 -7T171 -4L512 621Q513 623 521 627T542 629Q547 628 548 625T550 619L213 2Q211 -2 203 -8T182 -12ZM543 147V298Q513 260
489 225T432 147H543Z" />
<glyph unicode="&#xbd;" glyph-name="onehalf" horiz-adv-x="732" d="M556 383Q607 383 639 354T672 278Q672 254 661 230T627 180Q608 157 574 123T505 53H622Q642 53 654 64T672 87T681 105Q682 107 686 108Q688 108 692 107T699 103Q691 82 683 53T663 -1H437Q433
-1 429 3T425 11Q453 41 489 76T554 148Q578 178 593 209T608 269Q608 300 592 319T544 339Q511 339 492 323T459 291Q456 288 449 296T442 308Q459 337 490 360T556 383ZM173 521V328Q173 301 180 280Q181 277 191 274T213 269T229 267Q233 263 232 255T229 245Q210
246 199 246T177 247T146 248Q118 248 102 247T56 245Q52 247 52 255T56 267Q65 267 83 271T104 281Q108 291 110 305T112 326V508Q112 522 108 532T96 542Q88 542 76 537T49 527Q45 529 42 535T36 545Q50 554 78 570T168 623Q181 619 181 607Q181 607 179 594T175
560T173 521ZM551 619L214 2Q212 -2 204 -8T183 -12Q176 -10 174 -7T172 -4L513 621Q514 623 522 627T543 629Q548 628 549 625T551 619Z" />
<glyph unicode="&#xbe;" glyph-name="threequarters" horiz-adv-x="683" d="M593 397Q598 397 600 394T602 386V143H636Q643 137 645 126T642 104H604V0Q603 -1 595 -2T575 -3Q565 -3 557 -2T544 2V104H383Q379 105 377 108T373 119L573 386Q576 390 581 393T593
397ZM154 631Q185 631 212 613T239 556Q239 524 219 504T183 475Q196 475 216 464T254 431T271 377Q271 334 249 304T190 259T111 243Q95 243 75 247T46 258Q46 258 40 264T34 281Q34 296 43 304T64 313Q77 313 84 304T100 285Q114 271 138 271Q169 271 188 292T208
359Q208 395 187 419T138 443Q125 443 114 440T99 436Q96 440 94 447Q92 452 94 456Q130 464 157 485T185 543Q185 562 170 577T135 593Q117 593 103 586T79 569T66 557Q62 559 60 565T58 572Q65 583 77 596T109 620T154 631ZM556 619L219 2Q217 -2 209 -8T188
-12Q181 -10 179 -7T176 -4L518 621Q519 623 527 627T548 629Q553 628 554 625T556 619ZM544 147V298Q514 260 490 225T433 147H544Z" />
<glyph unicode="&#xbf;" glyph-name="questiondown" horiz-adv-x="336" d="M249 243Q253 227 255 201T257 154Q257 118 244 96T212 59T174 33Q138 11 114 -10T89 -66Q89 -104 111 -125T161 -146Q187 -146 200 -141T223 -131T245 -126Q256 -126 272 -138T288 -175Q288
-198 279 -211Q265 -218 232 -218Q208 -218 176 -206T112 -171T61 -114T40 -37Q40 13 62 47T139 112Q152 120 168 132T198 156T215 173Q220 183 221 198T221 227Q221 231 221 234T221 241Q224 247 226 250T236 254Q245 250 249 243ZM281 365Q281 343 265 328T227
312Q205 312 190 327T174 365Q174 387 189 403T227 420Q249 420 265 404T281 365Z" />
<glyph unicode="&#xc0;" glyph-name="Agrave" horiz-adv-x="605" d="M400 967Q396 968 375 973T326 986T270 1005T224 1027T206 1051Q206 1068 225 1075T260 1082Q271 1082 284 1080T305 1074Q326 1062 349 1041T389 1002T408 980Q408 973 400 967ZM60 131L347
609Q353 619 366 632T387 646Q393 646 398 644T405 640L495 145Q500 123 502 107T507 74Q511 54 525 45T553 34T571 32Q573 25 571 12T565 -4Q538 -2 507 1T445 4Q414 4 373 1T306 -4Q304 -1 305 7T309 24T314 32Q326 32 342 36T370 50Q381 58 382 66Q383 69 381
84T374 122T366 165T359 201T356 215Q356 215 355 217T351 219Q331 220 314 220T281 220Q276 220 272 220T264 220Q236 220 215 220T169 219Q165 219 162 214Q162 214 153 199T133 165T113 132Q103 114 92 92T80 65Q78 53 92 46T124 35T144 32Q147 27 144 13T137
-4Q114 -1 92 1T40 4Q9 4 -13 2T-59 -4Q-61 -1 -60 11T-54 31Q-48 31 -34 35T-6 47T15 62Q31 82 39 96T60 131ZM308 465L193 273Q193 273 193 272T195 270Q209 269 231 268T269 267Q290 267 305 267T342 269Q344 269 345 271T346 273L308 465Z" />
<glyph unicode="&#xc1;" glyph-name="Aacute" horiz-adv-x="605" d="M381 711Q378 713 375 717T372 724Q375 728 392 746T432 785T476 818Q483 822 497 824T521 826Q538 826 556 819T575 795Q575 783 557 772T512 750T456 731T407 717T381 711ZM60 131L347 609Q353
619 366 632T387 646Q393 646 398 644T405 640L495 145Q500 123 502 107T507 74Q511 54 525 45T553 34T571 32Q573 25 571 12T565 -4Q538 -2 507 1T445 4Q414 4 373 1T306 -4Q304 -1 305 7T309 24T314 32Q326 32 342 36T370 50Q381 58 382 66Q383 69 381 84T374
122T366 165T359 201T356 215Q356 215 355 217T351 219Q331 220 314 220T281 220Q276 220 272 220T264 220Q236 220 215 220T169 219Q165 219 162 214Q162 214 153 199T133 165T113 132Q103 114 92 92T80 65Q78 53 92 46T124 35T144 32Q147 27 144 13T137 -4Q114
-1 92 1T40 4Q9 4 -13 2T-59 -4Q-61 -1 -60 11T-54 31Q-48 31 -34 35T-6 47T15 62Q31 82 39 96T60 131ZM308 465L193 273Q193 273 193 272T195 270Q209 269 231 268T269 267Q290 267 305 267T342 269Q344 269 345 271T346 273L308 465Z" />
<glyph unicode="&#xc2;" glyph-name="Acircumflex" horiz-adv-x="605" d="M422 849Q425 849 427 846T433 839Q444 825 462 803T498 761T527 728Q526 717 515 713Q510 715 489 725T445 748T408 771Q391 761 364 748T312 725T280 713Q272 717 274 728Q301 749 328
771T377 812T408 839Q418 849 422 849ZM60 131L347 609Q353 619 366 632T387 646Q393 646 398 644T405 640L495 145Q500 123 502 107T507 74Q511 54 525 45T553 34T571 32Q573 25 571 12T565 -4Q538 -2 507 1T445 4Q414 4 373 1T306 -4Q304 -1 305 7T309 24T314
32Q326 32 342 36T370 50Q381 58 382 66Q383 69 381 84T374 122T366 165T359 201T356 215Q356 215 355 217T351 219Q331 220 314 220T281 220Q276 220 272 220T264 220Q236 220 215 220T169 219Q165 219 162 214Q162 214 153 199T133 165T113 132Q103 114 92 92T80
65Q78 53 92 46T124 35T144 32Q147 27 144 13T137 -4Q114 -1 92 1T40 4Q9 4 -13 2T-59 -4Q-61 -1 -60 11T-54 31Q-48 31 -34 35T-6 47T15 62Q31 82 39 96T60 131ZM308 465L193 273Q193 273 193 272T195 270Q209 269 231 268T269 267Q290 267 305 267T342 269Q344
269 345 271T346 273L308 465Z" />
<glyph unicode="&#xc3;" glyph-name="Atilde" horiz-adv-x="605" d="M349 801Q367 801 381 798T411 785Q427 775 444 768T484 760Q501 760 514 768T537 787T549 801Q551 800 554 797T558 787Q558 776 553 766T540 747Q521 728 502 720T461 711Q443 711 429 714T399
727Q383 737 366 744T326 752Q309 752 295 744T272 725T260 711Q258 712 255 715T252 725Q252 736 257 747T270 765Q289 785 308 793T349 801ZM60 131L347 609Q353 619 366 632T387 646Q393 646 398 644T405 640L495 145Q500 123 502 107T507 74Q511 54 525 45T553
34T571 32Q573 25 571 12T565 -4Q538 -2 507 1T445 4Q414 4 373 1T306 -4Q304 -1 305 7T309 24T314 32Q326 32 342 36T370 50Q381 58 382 66Q383 69 381 84T374 122T366 165T359 201T356 215Q356 215 355 217T351 219Q331 220 314 220T281 220Q276 220 272 220T264
220Q236 220 215 220T169 219Q165 219 162 214Q162 214 153 199T133 165T113 132Q103 114 92 92T80 65Q78 53 92 46T124 35T144 32Q147 27 144 13T137 -4Q114 -1 92 1T40 4Q9 4 -13 2T-59 -4Q-61 -1 -60 11T-54 31Q-48 31 -34 35T-6 47T15 62Q31 82 39 96T60 131ZM308
465L193 273Q193 273 193 272T195 270Q209 269 231 268T269 267Q290 267 305 267T342 269Q344 269 345 271T346 273L308 465Z" />
<glyph unicode="&#xc4;" glyph-name="Adieresis" horiz-adv-x="605" d="M454 782Q459 809 481 828T528 847Q553 847 567 828T577 782Q572 755 551 734T504 712Q478 712 464 733T454 782ZM265 782Q270 809 292 828T339 847Q364 847 378 828T388 782Q383 755 362
734T314 712Q288 712 274 733T265 782ZM60 131L347 609Q353 619 366 632T387 646Q393 646 398 644T405 640L495 145Q500 123 502 107T507 74Q511 54 525 45T553 34T571 32Q573 25 571 12T565 -4Q538 -2 507 1T445 4Q414 4 373 1T306 -4Q304 -1 305 7T309 24T314
32Q326 32 342 36T370 50Q381 58 382 66Q383 69 381 84T374 122T366 165T359 201T356 215Q356 215 355 217T351 219Q331 220 314 220T281 220Q276 220 272 220T264 220Q236 220 215 220T169 219Q165 219 162 214Q162 214 153 199T133 165T113 132Q103 114 92 92T80
65Q78 53 92 46T124 35T144 32Q147 27 144 13T137 -4Q114 -1 92 1T40 4Q9 4 -13 2T-59 -4Q-61 -1 -60 11T-54 31Q-48 31 -34 35T-6 47T15 62Q31 82 39 96T60 131ZM308 465L193 273Q193 273 193 272T195 270Q209 269 231 268T269 267Q290 267 305 267T342 269Q344
269 345 271T346 273L308 465Z" />
<glyph unicode="&#xc5;" glyph-name="Aring" horiz-adv-x="605" d="M318 741Q326 781 357 809T426 837Q463 837 484 809T498 741Q491 701 459 673T389 645Q352 645 332 673T318 741ZM360 741Q356 719 367 704T398 688Q418 688 435 703T457 741Q462 763 451 778T419
794Q399 794 382 779T360 741ZM60 131L347 609Q353 619 366 632T387 646Q393 646 398 644T405 640L495 145Q500 123 502 107T507 74Q511 54 525 45T553 34T571 32Q573 25 571 12T565 -4Q538 -2 507 1T445 4Q414 4 373 1T306 -4Q304 -1 305 7T309 24T314 32Q326
32 342 36T370 50Q381 58 382 66Q383 69 381 84T374 122T366 165T359 201T356 215Q356 215 355 217T351 219Q331 220 314 220T281 220Q276 220 272 220T264 220Q236 220 215 220T169 219Q165 219 162 214Q162 214 153 199T133 165T113 132Q103 114 92 92T80 65Q78
53 92 46T124 35T144 32Q147 27 144 13T137 -4Q114 -1 92 1T40 4Q9 4 -13 2T-59 -4Q-61 -1 -60 11T-54 31Q-48 31 -34 35T-6 47T15 62Q31 82 39 96T60 131ZM308 465L193 273Q193 273 193 272T195 270Q209 269 231 268T269 267Q290 267 305 267T342 269Q344 269
345 271T346 273L308 465Z" />
<glyph unicode="&#xc6;" glyph-name="AE" horiz-adv-x="843" d="M495 642Q506 642 534 642T600 644T675 645T744 647T792 648Q794 611 797 574T803 504Q801 502 794 501T782 499Q770 499 768 507Q758 548 740 576T680 605H605Q589 605 576 604T558 594Q554 585
552 570T547 534L530 352Q530 348 541 345T568 341H616Q643 341 658 346T683 366T703 409Q706 417 714 417Q728 417 731 412L712 225Q708 221 696 221Q684 221 684 229Q680 264 672 274T658 288Q651 292 634 293T590 295Q578 295 563 294T536 290T523 281L507 138Q507
135 506 120T504 88T507 61Q510 51 528 46T564 41H624Q650 41 672 49T712 73Q728 89 741 111T770 166Q773 172 783 172Q790 172 799 170T810 166Q799 140 786 109T761 49T744 -2H426Q379 -2 345 -2T301 -3Q298 2 299 15T304 33Q310 34 323 35T349 40T365 50Q372
65 374 88T380 142L392 259Q391 260 391 261T388 263Q369 264 354 264T326 264Q322 264 318 264T310 264Q282 264 266 264T226 263Q220 263 217 258Q217 258 206 243T180 205T151 163T129 132Q117 114 105 92T91 65Q88 53 102 46T132 35T152 32Q154 27 153 13T149
-4Q126 -1 98 1T39 4Q8 4 -14 2T-60 -4Q-62 -1 -63 11T-59 31Q-53 31 -39 35T-9 47T13 62Q30 82 39 96T64 131L372 576Q372 576 376 583T380 594Q380 602 371 605T356 608Q353 613 355 627T361 645Q391 643 429 643T495 642ZM421 554L254 317Q254 317 254 315T256
313Q270 312 286 312T319 311Q325 311 330 311T339 311Q353 311 365 311T393 312Q395 312 396 314T398 317L417 501Q419 517 419 530T421 554Z" />
<glyph unicode="&#xc7;" glyph-name="Ccedilla" horiz-adv-x="630" d="M306 -3H336L312 -28H329Q348 -28 367 -41T386 -77Q386 -103 369 -123T323 -155T262 -167Q252 -167 237 -164T217 -157Q213 -153 213 -147Q213 -134 219 -127T233 -119Q243 -119 250 -125T265
-137T288 -144Q307 -144 319 -132T332 -103Q332 -86 323 -76T303 -66Q294 -66 288 -68T273 -74Q272 -74 265 -70T257 -61Q257 -57 271 -44T306 -3ZM433 609Q369 609 314 565T225 443T191 262Q191 228 199 189T225 115T276 58T356 36Q391 36 421 48T474 78Q497 97
516 124T547 173T561 199Q582 199 591 188Q590 184 582 162T562 113T540 64T524 39Q483 17 438 5T329 -7Q258 -7 206 17T119 82T68 172T51 270Q51 362 85 432T177 552T301 626T433 651Q478 651 531 642T623 623Q623 619 622 599T618 553T613 507T610 482Q609 478
603 474T589 469Q580 469 577 473Q576 487 570 509T548 555T504 593T433 609Z" />
<glyph unicode="&#xc8;" glyph-name="Egrave" horiz-adv-x="558" d="M411 954Q407 955 386 960T337 973T281 992T235 1014T217 1038Q217 1055 236 1062T271 1069Q282 1069 295 1067T316 1061Q337 1049 360 1028T400 989T419 967Q419 960 411 954ZM247 642Q258
642 286 642T352 644T427 645T496 647T544 648Q542 618 542 589T542 531Q542 524 542 517T542 504Q540 502 533 501T520 499Q509 499 507 507Q500 548 485 576T428 605H353Q337 605 324 604T305 594Q300 585 297 570T289 534L255 359Q254 355 265 352T292 349H340Q367
349 383 354T410 374T434 417Q437 425 445 425Q459 425 462 420L426 232Q425 231 419 230T408 229Q397 229 397 236Q396 271 390 282T377 296Q363 303 310 303Q298 303 282 302T254 298T241 289L212 138Q212 137 211 134Q209 123 205 99T204 61Q206 51 224 46T259
41H319Q345 41 368 49T410 73Q442 103 477 166Q480 172 491 172Q498 172 507 170T517 166Q504 140 488 109T458 49T436 -2H117Q70 -2 36 -2T-8 -3Q-10 2 -8 15T-1 33Q5 34 18 35T45 40T61 50Q69 65 74 88T85 142L155 501Q156 505 156 509T158 517Q163 542 166 561T166
593Q165 600 154 603T129 607T110 608Q108 613 111 627T118 645Q148 643 183 643T247 642Z" />
<glyph unicode="&#xc9;" glyph-name="Eacute" horiz-adv-x="558" d="M319 698Q316 700 313 704T310 711Q313 715 330 733T370 772T414 805Q421 809 435 811T459 813Q476 813 494 806T513 782Q513 770 495 759T450 737T394 718T345 704T319 698ZM247 642Q258 642
286 642T352 644T427 645T496 647T544 648Q542 618 542 589T542 531Q542 524 542 517T542 504Q540 502 533 501T520 499Q509 499 507 507Q500 548 485 576T428 605H353Q337 605 324 604T305 594Q300 585 297 570T289 534L255 359Q254 355 265 352T292 349H340Q367
349 383 354T410 374T434 417Q437 425 445 425Q459 425 462 420L426 232Q425 231 419 230T408 229Q397 229 397 236Q396 271 390 282T377 296Q363 303 310 303Q298 303 282 302T254 298T241 289L212 138Q212 137 211 134Q209 123 205 99T204 61Q206 51 224 46T259
41H319Q345 41 368 49T410 73Q442 103 477 166Q480 172 491 172Q498 172 507 170T517 166Q504 140 488 109T458 49T436 -2H117Q70 -2 36 -2T-8 -3Q-10 2 -8 15T-1 33Q5 34 18 35T45 40T61 50Q69 65 74 88T85 142L155 501Q156 505 156 509T158 517Q163 542 166 561T166
593Q165 600 154 603T129 607T110 608Q108 613 111 627T118 645Q148 643 183 643T247 642Z" />
<glyph unicode="&#xca;" glyph-name="Ecircumflex" horiz-adv-x="558" d="M375 849Q378 849 380 846T386 839Q397 825 415 803T451 761T480 728Q479 717 468 713Q463 715 442 725T398 748T361 771Q344 761 317 748T265 725T233 713Q225 717 227 728Q254 749 281
771T330 812T361 839Q371 849 375 849ZM247 642Q258 642 286 642T352 644T427 645T496 647T544 648Q542 618 542 589T542 531Q542 524 542 517T542 504Q540 502 533 501T520 499Q509 499 507 507Q500 548 485 576T428 605H353Q337 605 324 604T305 594Q300 585
297 570T289 534L255 359Q254 355 265 352T292 349H340Q367 349 383 354T410 374T434 417Q437 425 445 425Q459 425 462 420L426 232Q425 231 419 230T408 229Q397 229 397 236Q396 271 390 282T377 296Q363 303 310 303Q298 303 282 302T254 298T241 289L212 138Q212
137 211 134Q209 123 205 99T204 61Q206 51 224 46T259 41H319Q345 41 368 49T410 73Q442 103 477 166Q480 172 491 172Q498 172 507 170T517 166Q504 140 488 109T458 49T436 -2H117Q70 -2 36 -2T-8 -3Q-10 2 -8 15T-1 33Q5 34 18 35T45 40T61 50Q69 65 74 88T85
142L155 501Q156 505 156 509T158 517Q163 542 166 561T166 593Q165 600 154 603T129 607T110 608Q108 613 111 627T118 645Q148 643 183 643T247 642Z" />
<glyph unicode="&#xcb;" glyph-name="Edieresis" horiz-adv-x="558" d="M416 782Q421 809 443 828T490 847Q515 847 529 828T539 782Q534 755 513 734T466 712Q440 712 426 733T416 782ZM227 782Q232 809 254 828T301 847Q326 847 340 828T350 782Q345 755 324
734T276 712Q250 712 236 733T227 782ZM247 642Q258 642 286 642T352 644T427 645T496 647T544 648Q542 618 542 589T542 531Q542 524 542 517T542 504Q540 502 533 501T520 499Q509 499 507 507Q500 548 485 576T428 605H353Q337 605 324 604T305 594Q300 585
297 570T289 534L255 359Q254 355 265 352T292 349H340Q367 349 383 354T410 374T434 417Q437 425 445 425Q459 425 462 420L426 232Q425 231 419 230T408 229Q397 229 397 236Q396 271 390 282T377 296Q363 303 310 303Q298 303 282 302T254 298T241 289L212 138Q212
137 211 134Q209 123 205 99T204 61Q206 51 224 46T259 41H319Q345 41 368 49T410 73Q442 103 477 166Q480 172 491 172Q498 172 507 170T517 166Q504 140 488 109T458 49T436 -2H117Q70 -2 36 -2T-8 -3Q-10 2 -8 15T-1 33Q5 34 18 35T45 40T61 50Q69 65 74 88T85
142L155 501Q156 505 156 509T158 517Q163 542 166 561T166 593Q165 600 154 603T129 607T110 608Q108 613 111 627T118 645Q148 643 183 643T247 642Z" />
<glyph unicode="&#xcc;" glyph-name="Igrave" horiz-adv-x="344" d="M577 954Q573 955 552 960T503 973T447 992T401 1014T383 1038Q383 1055 402 1062T437 1069Q448 1069 461 1067T482 1061Q503 1049 526 1028T566 989T585 967Q585 960 577 954ZM247 640Q276
640 312 641T376 646Q378 642 376 629T369 610Q363 610 350 609T324 604T308 593Q300 578 294 556T282 501L213 142Q212 138 212 134T210 126Q205 101 202 82T202 50Q203 44 214 40T238 35T257 32Q259 27 257 14T250 -4Q225 -1 188 1T121 3Q93 3 56 1T-9 -4Q-11
1 -8 14T-1 32Q5 33 18 34T44 40T60 50Q68 65 73 88T85 142L155 501Q156 505 156 509T158 517Q163 542 166 561T166 593Q165 600 154 603T130 608T111 610Q109 615 111 628T118 646Q144 643 181 642T247 640Z" />
<glyph unicode="&#xcd;" glyph-name="Iacute" horiz-adv-x="344" d="M189 954Q186 956 183 960T180 967Q183 971 200 989T240 1028T284 1061Q291 1065 305 1067T329 1069Q346 1069 364 1062T383 1038Q383 1026 365 1015T320 993T264 974T215 960T189 954ZM247
640Q276 640 312 641T376 646Q378 642 376 629T369 610Q363 610 350 609T324 604T308 593Q300 578 294 556T282 501L213 142Q212 138 212 134T210 126Q205 101 202 82T202 50Q203 44 214 40T238 35T257 32Q259 27 257 14T250 -4Q225 -1 188 1T121 3Q93 3 56 1T-9
-4Q-11 1 -8 14T-1 32Q5 33 18 34T44 40T60 50Q68 65 73 88T85 142L155 501Q156 505 156 509T158 517Q163 542 166 561T166 593Q165 600 154 603T130 608T111 610Q109 615 111 628T118 646Q144 643 181 642T247 640Z" />
<glyph unicode="&#xce;" glyph-name="Icircumflex" horiz-adv-x="344" d="M536 849Q539 849 541 846T547 839Q558 825 576 803T612 761T641 728Q640 717 629 713Q624 715 603 725T559 748T522 771Q505 761 478 748T426 725T394 713Q386 717 388 728Q415 749 442
771T491 812T522 839Q532 849 536 849ZM247 640Q276 640 312 641T376 646Q378 642 376 629T369 610Q363 610 350 609T324 604T308 593Q300 578 294 556T282 501L213 142Q212 138 212 134T210 126Q205 101 202 82T202 50Q203 44 214 40T238 35T257 32Q259 27 257
14T250 -4Q225 -1 188 1T121 3Q93 3 56 1T-9 -4Q-11 1 -8 14T-1 32Q5 33 18 34T44 40T60 50Q68 65 73 88T85 142L155 501Q156 505 156 509T158 517Q163 542 166 561T166 593Q165 600 154 603T130 608T111 610Q109 615 111 628T118 646Q144 643 181 642T247 640Z"
/>
<glyph unicode="&#xcf;" glyph-name="Idieresis" horiz-adv-x="344" d="M568 782Q573 809 595 828T642 847Q667 847 681 828T691 782Q686 755 665 734T618 712Q592 712 578 733T568 782ZM379 782Q384 809 406 828T453 847Q478 847 492 828T502 782Q497 755 476
734T428 712Q402 712 388 733T379 782ZM247 640Q276 640 312 641T376 646Q378 642 376 629T369 610Q363 610 350 609T324 604T308 593Q300 578 294 556T282 501L213 142Q212 138 212 134T210 126Q205 101 202 82T202 50Q203 44 214 40T238 35T257 32Q259 27 257
14T250 -4Q225 -1 188 1T121 3Q93 3 56 1T-9 -4Q-11 1 -8 14T-1 32Q5 33 18 34T44 40T60 50Q68 65 73 88T85 142L155 501Q156 505 156 509T158 517Q163 542 166 561T166 593Q165 600 154 603T130 608T111 610Q109 615 111 628T118 646Q144 643 181 642T247 640Z"
/>
<glyph unicode="&#xd0;" glyph-name="Eth" horiz-adv-x="704" d="M59 335H124L156 501Q157 505 157 509T159 517Q164 542 167 561T167 593Q166 600 155 603T130 607T111 608Q109 613 112 627T119 645Q149 643 184 643T248 642Q277 642 312 643T388 645Q493 645
563 603T662 486T671 310Q649 196 588 127T440 28T255 -3Q248 -3 234 -3T203 -3Q167 -3 123 -3T43 -3T-7 -3Q-9 2 -7 15T0 33Q6 34 19 35T46 40T62 50Q70 65 75 88T86 142L116 297H52Q49 297 49 301T49 308Q50 312 52 321T59 335ZM290 534L251 335H381Q388 335
386 327Q385 323 382 313T375 297H244L213 138Q213 137 212 134Q210 123 206 99T205 61Q207 51 224 45T258 38Q369 38 433 101T526 307Q545 403 529 469T467 570T354 605Q338 605 325 604T306 594Q301 585 298 570T290 534Z" />
<glyph unicode="&#xd1;" glyph-name="Ntilde" horiz-adv-x="698" d="M368 801Q386 801 400 798T430 785Q446 775 463 768T503 760Q520 760 533 768T556 787T568 801Q570 800 573 797T577 787Q577 776 572 766T559 747Q540 728 521 720T480 711Q462 711 448 714T418
727Q402 737 385 744T345 752Q328 752 314 744T291 725T279 711Q277 712 274 715T271 725Q271 736 276 747T289 765Q308 785 327 793T368 801ZM215 640Q239 640 266 641T316 646Q324 618 346 573T399 472T464 357T529 242Q531 247 534 259T539 282L574 465Q578
484 582 510T588 560T588 590Q586 599 571 603T541 609T519 611Q518 611 520 625T526 647Q557 646 580 643T635 640Q665 640 694 643T752 647Q753 643 751 631T742 610Q739 610 722 609T687 604T663 588Q660 581 653 559T640 512T629 468L565 136Q557 93 553 65T543
-1Q541 -3 531 -4T519 -5Q513 -5 507 1T496 18L220 507L152 153Q147 127 145 99T143 59Q145 50 160 44T193 36T213 33Q216 26 213 14T208 -4Q181 -2 153 1T94 4Q63 4 39 1T-18 -4Q-20 3 -16 17T-10 32Q-4 32 12 35T45 43T67 58Q74 69 83 98T97 156Q109 220 120
274T142 383T165 502Q173 542 172 559T165 590Q162 597 151 601T127 607T109 610Q107 610 107 618T109 635T114 646Q134 645 159 643T215 640Z" />
<glyph unicode="&#xd2;" glyph-name="Ograve" horiz-adv-x="688" d="M437 954Q433 955 412 960T363 973T307 992T261 1014T243 1038Q243 1055 262 1062T297 1069Q308 1069 321 1067T342 1061Q363 1049 386 1028T426 989T445 967Q445 960 437 954ZM414 651Q474
651 520 628T598 565T646 479T663 384Q663 290 628 217T537 94T415 17T288 -10Q220 -10 166 26T80 123T48 255Q48 346 82 419T170 544T289 623T414 651ZM393 609Q342 609 304 575T240 484T201 363T188 238Q188 182 201 135T243 60T318 32Q368 32 406 66T469 155T508
275T522 400Q522 456 508 503T466 580T393 609Z" />
<glyph unicode="&#xd3;" glyph-name="Oacute" horiz-adv-x="688" d="M372 698Q369 700 366 704T363 711Q366 715 383 733T423 772T467 805Q474 809 488 811T512 813Q529 813 547 806T566 782Q566 770 548 759T503 737T447 718T398 704T372 698ZM414 651Q474 651
520 628T598 565T646 479T663 384Q663 290 628 217T537 94T415 17T288 -10Q220 -10 166 26T80 123T48 255Q48 346 82 419T170 544T289 623T414 651ZM393 609Q342 609 304 575T240 484T201 363T188 238Q188 182 201 135T243 60T318 32Q368 32 406 66T469 155T508
275T522 400Q522 456 508 503T466 580T393 609Z" />
<glyph unicode="&#xd4;" glyph-name="Ocircumflex" horiz-adv-x="688" d="M430 849Q433 849 435 846T441 839Q452 825 470 803T506 761T535 728Q534 717 523 713Q518 715 497 725T453 748T416 771Q399 761 372 748T320 725T288 713Q280 717 282 728Q309 749 336
771T385 812T416 839Q426 849 430 849ZM414 651Q474 651 520 628T598 565T646 479T663 384Q663 290 628 217T537 94T415 17T288 -10Q220 -10 166 26T80 123T48 255Q48 346 82 419T170 544T289 623T414 651ZM393 609Q342 609 304 575T240 484T201 363T188 238Q188
182 201 135T243 60T318 32Q368 32 406 66T469 155T508 275T522 400Q522 456 508 503T466 580T393 609Z" />
<glyph unicode="&#xd5;" glyph-name="Otilde" horiz-adv-x="688" d="M362 801Q380 801 394 798T424 785Q440 775 457 768T497 760Q514 760 527 768T550 787T562 801Q564 800 567 797T571 787Q571 776 566 766T553 747Q534 728 515 720T474 711Q456 711 442 714T412
727Q396 737 379 744T339 752Q322 752 308 744T285 725T273 711Q271 712 268 715T265 725Q265 736 270 747T283 765Q302 785 321 793T362 801ZM414 651Q474 651 520 628T598 565T646 479T663 384Q663 290 628 217T537 94T415 17T288 -10Q220 -10 166 26T80 123T48
255Q48 346 82 419T170 544T289 623T414 651ZM393 609Q342 609 304 575T240 484T201 363T188 238Q188 182 201 135T243 60T318 32Q368 32 406 66T469 155T508 275T522 400Q522 456 508 503T466 580T393 609Z" />
<glyph unicode="&#xd6;" glyph-name="Odieresis" horiz-adv-x="688" d="M474 782Q479 809 501 828T548 847Q573 847 587 828T597 782Q592 755 571 734T524 712Q498 712 484 733T474 782ZM285 782Q290 809 312 828T359 847Q384 847 398 828T408 782Q403 755 382
734T334 712Q308 712 294 733T285 782ZM414 651Q474 651 520 628T598 565T646 479T663 384Q663 290 628 217T537 94T415 17T288 -10Q220 -10 166 26T80 123T48 255Q48 346 82 419T170 544T289 623T414 651ZM393 609Q342 609 304 575T240 484T201 363T188 238Q188
182 201 135T243 60T318 32Q368 32 406 66T469 155T508 275T522 400Q522 456 508 503T466 580T393 609Z" />
<glyph unicode="&#xd7;" glyph-name="multiply" horiz-adv-x="425" d="M38 68Q34 68 29 83T23 110L174 242Q176 244 176 245Q176 249 175 250L76 384Q76 391 82 399T97 413T107 419Q110 419 110 418T111 415L213 277Q215 275 217 275L219 276L373 414Q376 417
379 417Q384 417 389 403T394 374L244 241Q242 239 242 239Q242 238 243 237L341 104Q341 94 330 81T314 68Q310 68 308 71L207 208Q205 210 204 210Q202 210 200 208L43 71Q40 68 38 68Z" />
<glyph unicode="&#xd8;" glyph-name="Oslash" horiz-adv-x="688" d="M102 -13Q96 -11 85 -2T78 12L120 65Q86 102 67 151T48 255Q48 346 82 419T170 544T289 623T414 651Q454 651 487 640T549 611L582 653Q588 652 599 644T606 630L575 590Q618 550 640 495T663
384Q663 290 628 217T537 94T415 17T288 -10Q247 -10 211 3T145 42L102 -13ZM508 505L206 120Q221 80 248 56T318 32Q368 32 406 66T469 155T508 275T522 400Q522 458 508 505ZM393 609Q342 609 304 575T240 484T201 363T188 238Q188 196 195 161L494 541Q478 572
453 590T393 609Z" />
<glyph unicode="&#xd9;" glyph-name="Ugrave" horiz-adv-x="675" d="M489 954Q485 955 464 960T415 973T359 992T313 1014T295 1038Q295 1055 314 1062T349 1069Q360 1069 373 1067T394 1061Q415 1049 438 1028T478 989T497 967Q497 960 489 954ZM229 640Q258
640 294 641T358 646Q360 642 358 629T351 610Q345 610 332 609T306 604T289 593Q281 578 276 556T264 501L230 322Q220 273 216 234T220 155Q229 112 251 93T298 68T340 62Q376 62 414 86T485 164T534 302L566 468Q572 500 576 536T577 587Q575 597 562 601T534
608T513 610Q511 615 513 628T520 646Q552 643 576 642T632 640Q662 640 687 642T740 646Q742 642 740 629T733 610Q727 610 712 609T681 603T659 587Q651 572 640 537T622 469L585 279Q566 180 519 116T409 22T281 -9Q224 -9 177 12T106 77Q87 113 85 165T97 294L137
501Q138 505 138 509T140 517Q145 542 148 561T148 593Q147 600 136 603T112 608T93 610Q91 615 93 628T100 646Q126 643 163 642T229 640Z" />
<glyph unicode="&#xda;" glyph-name="Uacute" horiz-adv-x="675" d="M426 698Q423 700 420 704T417 711Q420 715 437 733T477 772T521 805Q528 809 542 811T566 813Q583 813 601 806T620 782Q620 770 602 759T557 737T501 718T452 704T426 698ZM229 640Q258 640
294 641T358 646Q360 642 358 629T351 610Q345 610 332 609T306 604T289 593Q281 578 276 556T264 501L230 322Q220 273 216 234T220 155Q229 112 251 93T298 68T340 62Q376 62 414 86T485 164T534 302L566 468Q572 500 576 536T577 587Q575 597 562 601T534 608T513
610Q511 615 513 628T520 646Q552 643 576 642T632 640Q662 640 687 642T740 646Q742 642 740 629T733 610Q727 610 712 609T681 603T659 587Q651 572 640 537T622 469L585 279Q566 180 519 116T409 22T281 -9Q224 -9 177 12T106 77Q87 113 85 165T97 294L137 501Q138
505 138 509T140 517Q145 542 148 561T148 593Q147 600 136 603T112 608T93 610Q91 615 93 628T100 646Q126 643 163 642T229 640Z" />
<glyph unicode="&#xdb;" glyph-name="Ucircumflex" horiz-adv-x="675" d="M465 849Q468 849 470 846T476 839Q487 825 505 803T541 761T570 728Q569 717 558 713Q553 715 532 725T488 748T451 771Q434 761 407 748T355 725T323 713Q315 717 317 728Q344 749 371
771T420 812T451 839Q461 849 465 849ZM229 640Q258 640 294 641T358 646Q360 642 358 629T351 610Q345 610 332 609T306 604T289 593Q281 578 276 556T264 501L230 322Q220 273 216 234T220 155Q229 112 251 93T298 68T340 62Q376 62 414 86T485 164T534 302L566
468Q572 500 576 536T577 587Q575 597 562 601T534 608T513 610Q511 615 513 628T520 646Q552 643 576 642T632 640Q662 640 687 642T740 646Q742 642 740 629T733 610Q727 610 712 609T681 603T659 587Q651 572 640 537T622 469L585 279Q566 180 519 116T409 22T281
-9Q224 -9 177 12T106 77Q87 113 85 165T97 294L137 501Q138 505 138 509T140 517Q145 542 148 561T148 593Q147 600 136 603T112 608T93 610Q91 615 93 628T100 646Q126 643 163 642T229 640Z" />
<glyph unicode="&#xdc;" glyph-name="Udieresis" horiz-adv-x="675" d="M500 782Q505 809 527 828T574 847Q599 847 613 828T623 782Q618 755 597 734T550 712Q524 712 510 733T500 782ZM311 782Q316 809 338 828T385 847Q410 847 424 828T434 782Q429 755 408
734T360 712Q334 712 320 733T311 782ZM229 640Q258 640 294 641T358 646Q360 642 358 629T351 610Q345 610 332 609T306 604T289 593Q281 578 276 556T264 501L230 322Q220 273 216 234T220 155Q229 112 251 93T298 68T340 62Q376 62 414 86T485 164T534 302L566
468Q572 500 576 536T577 587Q575 597 562 601T534 608T513 610Q511 615 513 628T520 646Q552 643 576 642T632 640Q662 640 687 642T740 646Q742 642 740 629T733 610Q727 610 712 609T681 603T659 587Q651 572 640 537T622 469L585 279Q566 180 519 116T409 22T281
-9Q224 -9 177 12T106 77Q87 113 85 165T97 294L137 501Q138 505 138 509T140 517Q145 542 148 561T148 593Q147 600 136 603T112 608T93 610Q91 615 93 628T100 646Q126 643 163 642T229 640Z" />
<glyph unicode="&#xdd;" glyph-name="Yacute" horiz-adv-x="562" d="M369 698Q366 700 363 704T360 711Q363 715 380 733T420 772T464 805Q471 809 485 811T509 813Q526 813 544 806T563 782Q563 770 545 759T500 737T444 718T395 704T369 698ZM186 142L213 277Q214
285 211 297Q207 313 199 341T181 400T163 460T148 506T142 524Q135 544 132 553T124 578Q117 596 97 602T68 610Q66 615 68 628T75 646Q101 643 138 642T204 640Q233 640 269 641T333 646Q335 642 333 629T326 610Q320 610 307 609T281 602T266 584Q265 581 268
572Q269 569 269 568L336 353Q337 351 352 371T391 422T440 489T486 555Q490 561 492 564Q499 576 501 587Q502 596 490 600T462 607T439 610Q438 610 438 610Q436 615 438 628T445 646Q477 643 496 642T546 640Q576 640 598 642T649 646Q651 642 649 629T642 610Q636
610 623 609T594 602T570 586Q563 578 542 551T493 487T435 412T383 341T348 291Q340 280 339 272L313 142Q306 111 303 88T303 50Q304 44 315 40T338 35T357 32Q359 27 357 14T350 -4Q325 -1 288 1T222 3Q194 3 157 1T93 -4Q91 1 93 14T100 32Q106 33 119 34T145
40T161 50Q169 65 174 88T186 142Z" />
<glyph unicode="&#xde;" glyph-name="Thorn" horiz-adv-x="542" d="M355 501Q413 501 456 475T521 406T531 310Q520 252 482 212T394 152T298 132Q274 132 263 138T248 150Q246 153 245 160T243 172Q243 179 247 179Q259 175 276 175Q299 175 323 192T367 236T393
296Q402 340 397 377T373 438T324 461Q308 461 296 458T277 445Q271 438 269 425T261 390L213 142Q212 138 212 134T210 126Q205 101 202 82T202 50Q203 44 214 40T238 35T257 32Q259 27 257 14T250 -4Q225 -1 188 1T121 3Q93 3 56 1T-9 -4Q-11 1 -8 14T-1 32Q5
33 18 34T44 40T60 50Q68 65 73 88T85 142L155 501Q156 505 156 509T158 517Q163 542 166 561T166 593Q165 600 154 603T129 607T110 608Q108 613 111 627T118 645Q148 643 183 643T247 642Q276 642 312 643T376 648Q378 644 376 631T369 612Q363 612 350 611T324
606T308 595Q301 582 295 560T284 508Q284 508 284 503T286 497Q288 497 289 497T291 498Q302 500 320 500T355 501Z" />
<glyph unicode="&#xdf;" glyph-name="germandbls" horiz-adv-x="514" d="M225 414Q214 345 204 287T184 174T162 57Q147 -23 110 -84T27 -179T-58 -213Q-83 -213 -102 -207T-130 -195Q-134 -189 -136 -181T-139 -163Q-139 -145 -129 -130T-102 -115Q-79 -115 -61
-139Q-54 -149 -46 -158T-24 -168Q-5 -168 5 -145T25 -73T50 53L104 369H41Q39 369 39 372Q39 377 46 387T64 405T86 414H112Q124 474 152 523T218 606T292 660T359 679Q391 679 422 665T474 623T495 557Q495 520 480 491T442 441T399 405T367 382Q357 375 355
368T352 353Q352 334 368 308T400 260Q429 221 445 190T462 124Q462 90 441 61T386 14T313 -4Q269 -4 254 -1T225 11Q221 15 215 25T208 51Q208 71 222 83T253 95Q267 95 274 85T288 62T304 39T332 29Q344 29 358 40T373 74Q373 89 361 109T332 150T302 188Q281
217 268 243T255 303Q255 328 269 348T302 387T336 420Q344 428 357 445T380 487T391 543Q391 548 390 563T384 596T369 627T339 640Q296 640 269 578T225 414Z" />
<glyph unicode="&#xe0;" glyph-name="agrave" horiz-adv-x="477" d="M365 489Q360 490 343 498T302 517T257 543T221 570T206 593Q206 613 221 623T250 633Q273 633 280 626Q291 616 306 597T337 557T362 520T374 500Q373 496 370 494T365 489ZM311 438Q337 438
368 432T415 421L354 129Q353 126 352 114T351 97Q351 90 354 83T364 76Q375 76 391 90T420 118T434 136Q439 136 443 125T447 109Q441 97 424 78T383 39T336 6T292 -8Q267 -8 249 8T231 57Q231 60 231 65T233 75Q234 81 235 86T237 94Q227 76 205 52T154 11T95
-7Q54 -7 33 28T11 112Q11 178 40 236T114 340T212 412T311 438ZM256 385Q231 385 209 365T170 310T144 233T134 148Q134 113 143 96T169 79Q186 79 205 107T243 181T271 274L290 373Q280 385 256 385Z" />
<glyph unicode="&#xe1;" glyph-name="aacute" horiz-adv-x="477" d="M284 489Q282 491 279 493T275 500Q276 504 286 520T312 557T342 597T369 626Q376 633 399 633Q412 633 427 623T443 593Q443 583 429 570T392 543T347 518T307 498T284 489ZM311 438Q337 438
368 432T415 421L354 129Q353 126 352 114T351 97Q351 90 354 83T364 76Q375 76 391 90T420 118T434 136Q439 136 443 125T447 109Q441 97 424 78T383 39T336 6T292 -8Q267 -8 249 8T231 57Q231 60 231 65T233 75Q234 81 235 86T237 94Q227 76 205 52T154 11T95
-7Q54 -7 33 28T11 112Q11 178 40 236T114 340T212 412T311 438ZM256 385Q231 385 209 365T170 310T144 233T134 148Q134 113 143 96T169 79Q186 79 205 107T243 181T271 274L290 373Q280 385 256 385Z" />
<glyph unicode="&#xe2;" glyph-name="acircumflex" horiz-adv-x="477" d="M337 662Q342 662 347 652Q370 606 392 569T420 520Q419 513 416 507T408 498Q400 505 384 519T350 549T322 576Q307 565 284 549T240 518T208 498Q200 502 204 520Q210 526 230 547T276
597T324 652Q329 657 331 659T337 662ZM311 438Q337 438 368 432T415 421L354 129Q353 126 352 114T351 97Q351 90 354 83T364 76Q375 76 391 90T420 118T434 136Q439 136 443 125T447 109Q441 97 424 78T383 39T336 6T292 -8Q267 -8 249 8T231 57Q231 60 231 65T233
75Q234 81 235 86T237 94Q227 76 205 52T154 11T95 -7Q54 -7 33 28T11 112Q11 178 40 236T114 340T212 412T311 438ZM256 385Q231 385 209 365T170 310T144 233T134 148Q134 113 143 96T169 79Q186 79 205 107T243 181T271 274L290 373Q280 385 256 385Z" />
<glyph unicode="&#xe3;" glyph-name="atilde" horiz-adv-x="477" d="M249 590Q266 590 279 586T306 575Q322 567 335 558T371 548Q387 548 400 557T423 576T436 590Q438 589 441 587T443 579Q442 567 436 556T422 537Q403 517 384 509T344 500Q327 500 315 504T288
515Q273 523 258 532T221 542Q205 542 192 533T169 514T155 500Q153 501 151 503T149 512Q151 524 157 535T170 553Q190 573 209 581T249 590ZM311 438Q337 438 368 432T415 421L354 129Q353 126 352 114T351 97Q351 90 354 83T364 76Q375 76 391 90T420 118T434
136Q439 136 443 125T447 109Q441 97 424 78T383 39T336 6T292 -8Q267 -8 249 8T231 57Q231 60 231 65T233 75Q234 81 235 86T237 94Q227 76 205 52T154 11T95 -7Q54 -7 33 28T11 112Q11 178 40 236T114 340T212 412T311 438ZM256 385Q231 385 209 365T170 310T144
233T134 148Q134 113 143 96T169 79Q186 79 205 107T243 181T271 274L290 373Q280 385 256 385Z" />
<glyph unicode="&#xe4;" glyph-name="adieresis" horiz-adv-x="477" d="M394 635Q420 635 434 616T444 568Q439 540 416 520T367 500Q341 500 327 520T317 568Q322 596 345 615T394 635ZM222 635Q248 635 262 616T272 568Q267 540 245 520T196 500Q170 500 156
520T146 568Q151 596 173 615T222 635ZM311 438Q337 438 368 432T415 421L354 129Q353 126 352 114T351 97Q351 90 354 83T364 76Q375 76 391 90T420 118T434 136Q439 136 443 125T447 109Q441 97 424 78T383 39T336 6T292 -8Q267 -8 249 8T231 57Q231 60 231 65T233
75Q234 81 235 86T237 94Q227 76 205 52T154 11T95 -7Q54 -7 33 28T11 112Q11 178 40 236T114 340T212 412T311 438ZM256 385Q231 385 209 365T170 310T144 233T134 148Q134 113 143 96T169 79Q186 79 205 107T243 181T271 274L290 373Q280 385 256 385Z" />
<glyph unicode="&#xe5;" glyph-name="aring" horiz-adv-x="477" d="M191 581Q199 621 231 649T300 677Q337 677 358 649T371 581Q364 541 332 513T262 485Q225 485 205 513T191 581ZM233 581Q229 559 240 544T271 528Q291 528 308 543T330 581Q335 603 324 618T292
634Q272 634 255 619T233 581ZM311 438Q337 438 368 432T415 421L354 129Q353 126 352 114T351 97Q351 90 354 83T364 76Q375 76 391 90T420 118T434 136Q439 136 443 125T447 109Q441 97 424 78T383 39T336 6T292 -8Q267 -8 249 8T231 57Q231 60 231 65T233 75Q234
81 235 86T237 94Q227 76 205 52T154 11T95 -7Q54 -7 33 28T11 112Q11 178 40 236T114 340T212 412T311 438ZM256 385Q231 385 209 365T170 310T144 233T134 148Q134 113 143 96T169 79Q186 79 205 107T243 181T271 274L290 373Q280 385 256 385Z" />
<glyph unicode="&#xe6;" glyph-name="ae" horiz-adv-x="592" d="M253 438Q285 438 308 423T345 382Q375 408 408 423T472 438Q497 438 522 430T563 403T580 349Q580 319 563 293T517 247T457 213T396 192T349 184Q348 182 348 173T347 159Q347 141 351 122T369
89T406 75Q423 75 439 84T470 106T494 128T505 139Q512 139 516 127T520 109Q515 101 495 83T448 44T391 9T338 -6Q269 -6 241 56Q235 52 216 42T173 20T127 0T94 -8Q62 -8 41 9T10 54T6 111Q12 140 30 161T65 189Q91 198 138 212T233 243Q239 245 240 257L243
304Q244 310 244 316T244 328Q244 357 238 379T212 401Q188 401 174 377T146 319Q139 303 127 290T92 276Q76 276 64 289T55 323Q59 341 75 363Q80 368 98 380T141 405T196 428T253 438ZM230 89Q229 96 229 119T230 168T235 204Q225 202 210 197T181 187T163 178Q152
171 140 154T125 121Q119 90 133 76T164 61Q174 61 188 66T214 78T230 89ZM438 402Q420 402 406 382T380 331T361 270T352 221Q366 221 385 233T422 265T452 311T464 364Q464 378 459 390T438 402Z" />
<glyph unicode="&#xe7;" glyph-name="ccedilla" horiz-adv-x="368" d="M112 -4H140L118 -28H134Q152 -28 169 -41T187 -74Q187 -98 171 -117T127 -148T70 -159Q60 -159 47 -156T28 -149Q24 -145 24 -141Q24 -129 29 -121T42 -113Q52 -113 58 -119T73 -131T95 -137Q113
-137 125 -126T137 -98Q137 -81 128 -72T109 -63Q101 -63 95 -65T81 -71Q80 -71 73 -68T66 -60Q66 -56 79 -43T112 -4ZM260 438Q289 438 312 432T346 417Q351 410 355 398T360 368Q360 346 344 328T306 309Q288 309 276 320T256 345Q249 358 239 374T213 390Q200
390 187 370T162 317T145 245T138 166Q138 117 153 96T198 75Q220 75 242 90T279 120T296 137Q302 137 305 127T309 111Q303 103 286 84T243 45T189 9T132 -6Q103 -6 76 8T32 52T15 128Q15 185 36 240T93 340T172 411T260 438Z" />
<glyph unicode="&#xe8;" glyph-name="egrave" horiz-adv-x="384" d="M310 489Q305 490 288 498T247 517T202 543T166 570T151 593Q151 613 166 623T195 633Q218 633 225 626Q236 616 251 597T282 557T307 520T319 500Q318 496 315 494T310 489ZM262 438Q287 438
312 430T353 403T370 349Q370 319 353 293T307 247T247 213T186 192T139 184Q138 182 138 173T137 159Q137 141 141 122T159 89T196 75Q213 75 229 84T260 106T284 128T295 139Q302 139 306 127T310 109Q305 101 285 83T238 44T181 9T128 -6Q76 -6 46 31T16 137Q16
191 38 244T97 342T176 412T262 438ZM142 221Q156 221 175 233T212 265T242 311T254 364Q254 378 250 390T229 402Q211 402 196 382T170 331T151 270T142 221Z" />
<glyph unicode="&#xe9;" glyph-name="eacute" horiz-adv-x="384" d="M233 489Q231 491 228 493T224 500Q225 504 235 520T261 557T291 597T318 626Q325 633 348 633Q361 633 376 623T392 593Q392 583 378 570T341 543T296 518T256 498T233 489ZM262 438Q287 438
312 430T353 403T370 349Q370 319 353 293T307 247T247 213T186 192T139 184Q138 182 138 173T137 159Q137 141 141 122T159 89T196 75Q213 75 229 84T260 106T284 128T295 139Q302 139 306 127T310 109Q305 101 285 83T238 44T181 9T128 -6Q76 -6 46 31T16 137Q16
191 38 244T97 342T176 412T262 438ZM142 221Q156 221 175 233T212 265T242 311T254 364Q254 378 250 390T229 402Q211 402 196 382T170 331T151 270T142 221Z" />
<glyph unicode="&#xea;" glyph-name="ecircumflex" horiz-adv-x="384" d="M290 644Q295 644 300 634Q323 588 345 551T373 502Q372 495 369 489T361 480Q353 487 337 501T303 531T275 558Q260 547 237 531T193 500T161 480Q153 484 157 502Q163 508 183 529T229
579T277 634Q282 639 284 641T290 644ZM262 438Q287 438 312 430T353 403T370 349Q370 319 353 293T307 247T247 213T186 192T139 184Q138 182 138 173T137 159Q137 141 141 122T159 89T196 75Q213 75 229 84T260 106T284 128T295 139Q302 139 306 127T310 109Q305
101 285 83T238 44T181 9T128 -6Q76 -6 46 31T16 137Q16 191 38 244T97 342T176 412T262 438ZM142 221Q156 221 175 233T212 265T242 311T254 364Q254 378 250 390T229 402Q211 402 196 382T170 331T151 270T142 221Z" />
<glyph unicode="&#xeb;" glyph-name="edieresis" horiz-adv-x="384" d="M354 635Q380 635 394 616T404 568Q399 540 376 520T327 500Q301 500 287 520T277 568Q282 596 305 615T354 635ZM182 635Q208 635 222 616T232 568Q227 540 205 520T156 500Q130 500 116
520T106 568Q111 596 133 615T182 635ZM262 438Q287 438 312 430T353 403T370 349Q370 319 353 293T307 247T247 213T186 192T139 184Q138 182 138 173T137 159Q137 141 141 122T159 89T196 75Q213 75 229 84T260 106T284 128T295 139Q302 139 306 127T310 109Q305
101 285 83T238 44T181 9T128 -6Q76 -6 46 31T16 137Q16 191 38 244T97 342T176 412T262 438ZM142 221Q156 221 175 233T212 265T242 311T254 364Q254 378 250 390T229 402Q211 402 196 382T170 331T151 270T142 221Z" />
<glyph unicode="&#xec;" glyph-name="igrave" horiz-adv-x="302" d="M235 489Q230 490 213 498T172 517T127 543T91 570T76 593Q76 613 91 623T120 633Q143 633 150 626Q161 616 176 597T207 557T232 520T244 500Q243 496 240 494T235 489ZM112 302Q113 305 114
317T116 334Q116 341 113 347T102 354Q92 354 76 341T47 313T32 295Q27 295 23 306T19 321Q25 333 42 352T81 391T126 424T170 438Q199 438 217 421T236 369Q236 359 233 339T227 311L191 129Q190 126 189 114T187 97Q187 90 190 83T200 76Q211 76 227 90T256 118T270
136Q275 136 279 125T283 109Q277 97 260 78T219 39T172 6T128 -8Q104 -8 86 8T67 62Q67 73 70 93T75 120L112 302Z" />
<glyph unicode="&#xed;" glyph-name="iacute" horiz-adv-x="302" d="M137 489Q135 491 132 493T128 500Q129 504 139 520T165 557T195 597T222 626Q229 633 252 633Q265 633 280 623T296 593Q296 583 282 570T245 543T200 518T160 498T137 489ZM112 302Q113 305
114 317T116 334Q116 341 113 347T102 354Q92 354 76 341T47 313T32 295Q27 295 23 306T19 321Q25 333 42 352T81 391T126 424T170 438Q199 438 217 421T236 369Q236 359 233 339T227 311L191 129Q190 126 189 114T187 97Q187 90 190 83T200 76Q211 76 227 90T256
118T270 136Q275 136 279 125T283 109Q277 97 260 78T219 39T172 6T128 -8Q104 -8 86 8T67 62Q67 73 70 93T75 120L112 302Z" />
<glyph unicode="&#xee;" glyph-name="icircumflex" horiz-adv-x="302" d="M204 644Q209 644 214 634Q237 588 259 551T287 502Q286 495 283 489T275 480Q267 487 251 501T217 531T189 558Q174 547 151 531T107 500T75 480Q67 484 71 502Q77 508 97 529T143 579T191
634Q196 639 198 641T204 644ZM112 302Q113 305 114 317T116 334Q116 341 113 347T102 354Q92 354 76 341T47 313T32 295Q27 295 23 306T19 321Q25 333 42 352T81 391T126 424T170 438Q199 438 217 421T236 369Q236 359 233 339T227 311L191 129Q190 126 189 114T187
97Q187 90 190 83T200 76Q211 76 227 90T256 118T270 136Q275 136 279 125T283 109Q277 97 260 78T219 39T172 6T128 -8Q104 -8 86 8T67 62Q67 73 70 93T75 120L112 302Z" />
<glyph unicode="&#xef;" glyph-name="idieresis" horiz-adv-x="302" d="M313 567Q318 594 340 613T387 632Q412 632 426 613T436 567Q431 540 410 519T363 498Q337 498 323 519T313 567ZM487 567Q492 594 514 613T561 632Q586 632 600 613T610 567Q605 540 584
519T537 498Q511 498 497 519T487 567ZM112 302Q113 305 114 317T116 334Q116 341 113 347T102 354Q92 354 76 341T47 313T32 295Q27 295 23 306T19 321Q25 333 42 352T81 391T126 424T170 438Q199 438 217 421T236 369Q236 359 233 339T227 311L191 129Q190 126
189 114T187 97Q187 90 190 83T200 76Q211 76 227 90T256 118T270 136Q275 136 279 125T283 109Q277 97 260 78T219 39T172 6T128 -8Q104 -8 86 8T67 62Q67 73 70 93T75 120L112 302Z" />
<glyph unicode="&#xf0;" glyph-name="eth" horiz-adv-x="452" d="M169 497Q166 502 161 513T160 528L244 583Q226 602 201 621T141 658Q142 663 145 671T154 679Q187 670 221 653T286 610L404 688Q407 684 412 673T414 658L310 589Q347 553 374 504T412 393T407
257Q397 203 369 155T304 71T227 14T155 -7Q96 -7 63 22T21 98T21 199Q29 238 53 280T111 358T185 416T264 438Q278 438 288 438T304 436Q304 462 297 494T264 560L169 497ZM278 212Q284 239 288 271T296 328T297 360Q291 386 278 392T254 399Q225 399 203 370T167
296T144 205Q136 157 136 118T143 56T169 33Q194 33 215 58T252 123T278 212Z" />
<glyph unicode="&#xf1;" glyph-name="ntilde" horiz-adv-x="523" d="M253 590Q270 590 283 586T310 575Q326 567 339 558T375 548Q391 548 404 557T427 576T440 590Q442 589 445 587T447 579Q446 567 440 556T426 537Q407 517 388 509T348 500Q331 500 319 504T292
515Q277 523 262 532T225 542Q209 542 196 533T173 514T159 500Q157 501 155 503T153 512Q155 524 161 535T174 553Q194 573 213 581T253 590ZM219 311Q218 303 214 287T209 268Q220 293 240 322T284 378T332 421T374 438Q415 438 429 417T444 354Q444 338 441
313T433 265T425 228L406 129Q405 126 404 114T402 97Q402 90 405 83T416 76Q427 76 442 90T471 118T485 136Q490 136 494 125T499 109Q493 97 476 78T435 39T388 6T344 -8Q320 -8 301 8T282 62Q282 73 286 93T291 120L313 236Q315 242 317 258T322 290T325 311Q325
319 322 325T310 331Q300 331 282 311T244 257T206 179T178 89L158 0Q151 -2 132 -4T104 -6Q96 -6 76 -4T46 0L104 302Q105 305 106 317T108 334Q108 341 105 347T94 354Q84 354 68 341T39 313T24 295Q19 295 15 306T11 321Q17 333 34 352T73 391T118 424T162 438Q191
438 209 421T228 369Q228 359 225 339T219 311Z" />
<glyph unicode="&#xf2;" glyph-name="ograve" horiz-adv-x="444" d="M312 489Q307 490 290 498T249 517T204 543T168 570T153 593Q153 613 168 623T197 633Q220 633 227 626Q238 616 253 597T284 557T309 520T321 500Q320 496 317 494T312 489ZM267 438Q308 438
340 425T392 380T411 290Q411 237 388 185T326 89T243 20T154 -6Q93 -6 54 31T15 139Q15 192 37 245T97 341T178 411T267 438ZM256 399Q229 399 207 372T170 301T146 210T137 122Q137 111 138 90T147 51T170 33Q197 33 219 60T256 131T280 220T289 305Q289 321
288 343T280 382T256 399Z" />
<glyph unicode="&#xf3;" glyph-name="oacute" horiz-adv-x="444" d="M238 489Q236 491 233 493T229 500Q230 504 240 520T266 557T296 597T323 626Q330 633 353 633Q366 633 381 623T397 593Q397 583 383 570T346 543T301 518T261 498T238 489ZM267 438Q308 438
340 425T392 380T411 290Q411 237 388 185T326 89T243 20T154 -6Q93 -6 54 31T15 139Q15 192 37 245T97 341T178 411T267 438ZM256 399Q229 399 207 372T170 301T146 210T137 122Q137 111 138 90T147 51T170 33Q197 33 219 60T256 131T280 220T289 305Q289 321
288 343T280 382T256 399Z" />
<glyph unicode="&#xf4;" glyph-name="ocircumflex" horiz-adv-x="444" d="M314 644Q319 644 324 634Q347 588 369 551T397 502Q396 495 393 489T385 480Q377 487 361 501T327 531T299 558Q284 547 261 531T217 500T185 480Q177 484 181 502Q187 508 207 529T253
579T301 634Q306 639 308 641T314 644ZM267 438Q308 438 340 425T392 380T411 290Q411 237 388 185T326 89T243 20T154 -6Q93 -6 54 31T15 139Q15 192 37 245T97 341T178 411T267 438ZM256 399Q229 399 207 372T170 301T146 210T137 122Q137 111 138 90T147 51T170
33Q197 33 219 60T256 131T280 220T289 305Q289 321 288 343T280 382T256 399Z" />
<glyph unicode="&#xf5;" glyph-name="otilde" horiz-adv-x="444" d="M233 590Q250 590 263 586T290 575Q306 567 319 558T355 548Q371 548 384 557T407 576T420 590Q422 589 425 587T427 579Q426 567 420 556T406 537Q387 517 368 509T328 500Q311 500 299 504T272
515Q257 523 242 532T205 542Q189 542 176 533T153 514T139 500Q137 501 135 503T133 512Q135 524 141 535T154 553Q174 573 193 581T233 590ZM267 438Q308 438 340 425T392 380T411 290Q411 237 388 185T326 89T243 20T154 -6Q93 -6 54 31T15 139Q15 192 37 245T97
341T178 411T267 438ZM256 399Q229 399 207 372T170 301T146 210T137 122Q137 111 138 90T147 51T170 33Q197 33 219 60T256 131T280 220T289 305Q289 321 288 343T280 382T256 399Z" />
<glyph unicode="&#xf6;" glyph-name="odieresis" horiz-adv-x="444" d="M354 635Q380 635 394 616T404 568Q399 540 376 520T327 500Q301 500 287 520T277 568Q282 596 305 615T354 635ZM182 635Q208 635 222 616T232 568Q227 540 205 520T156 500Q130 500 116
520T106 568Q111 596 133 615T182 635ZM267 438Q308 438 340 425T392 380T411 290Q411 237 388 185T326 89T243 20T154 -6Q93 -6 54 31T15 139Q15 192 37 245T97 341T178 411T267 438ZM256 399Q229 399 207 372T170 301T146 210T137 122Q137 111 138 90T147 51T170
33Q197 33 219 60T256 131T280 220T289 305Q289 321 288 343T280 382T256 399Z" />
<glyph unicode="&#xf7;" glyph-name="divide" horiz-adv-x="522" d="M50 218Q45 218 45 226Q45 249 60 268H468Q471 268 471 260Q471 250 469 239T458 218H50ZM232 109Q251 109 263 96T276 63Q276 39 259 20T218 0Q199 0 187 14T175 47Q175 71 191 90T232 109ZM304
485Q323 485 335 472T348 439Q348 415 331 396T289 376Q270 376 259 390T247 423Q247 447 263 466T304 485Z" />
<glyph unicode="&#xf8;" glyph-name="oslash" horiz-adv-x="444" d="M326 448Q331 448 342 446T354 438L346 423Q376 409 393 377T411 290Q411 237 388 185T326 89T243 20T154 -6Q134 -6 116 -2L107 -19Q103 -20 93 -17T80 -8L88 8Q55 23 35 56T15 139Q15 192
37 245T97 341T178 411T267 438Q295 438 318 433L326 448ZM256 399Q229 399 207 372T170 301T146 210T137 122Q137 118 137 112T138 99L284 369Q280 382 274 390T256 399ZM289 318L146 53Q154 33 170 33Q197 33 219 60T256 131T280 220T289 305Q289 308 289 311T289
318Z" />
<glyph unicode="&#xf9;" glyph-name="ugrave" horiz-adv-x="520" d="M332 489Q327 490 310 498T269 517T224 543T188 570T173 593Q173 613 188 623T217 633Q240 633 247 626Q258 616 273 597T304 557T329 520T341 500Q340 496 337 494T332 489ZM282 110Q285 126
288 140T294 162Q280 132 258 102T211 47T162 7T123 -8Q86 -8 74 11T62 76Q62 92 65 116T73 163T80 199Q86 229 91 250T100 302Q101 305 102 317T104 334Q104 341 101 347T90 354Q80 354 64 341T36 313T21 295Q16 295 12 306T7 321Q13 333 30 352T69 391T114 424T158
438Q187 438 205 421T224 369Q224 359 221 339T215 311Q214 307 211 289T203 248T195 210T192 194Q191 188 189 172T184 141T181 120Q181 113 184 107T196 100Q207 100 225 124T264 186T303 271T330 363L344 431Q352 433 371 435T398 437Q406 437 426 435T456 431L399
129Q398 125 397 113T396 97Q396 90 399 83T409 76Q420 76 436 90T465 118T479 136Q484 136 488 125T492 109Q486 97 469 78T428 39T381 6T337 -8Q313 -8 294 8T275 62Q275 67 277 80T282 110Z" />
<glyph unicode="&#xfa;" glyph-name="uacute" horiz-adv-x="520" d="M266 489Q264 491 261 493T257 500Q258 504 268 520T294 557T324 597T351 626Q358 633 381 633Q394 633 409 623T425 593Q425 583 411 570T374 543T329 518T289 498T266 489ZM282 110Q285 126
288 140T294 162Q280 132 258 102T211 47T162 7T123 -8Q86 -8 74 11T62 76Q62 92 65 116T73 163T80 199Q86 229 91 250T100 302Q101 305 102 317T104 334Q104 341 101 347T90 354Q80 354 64 341T36 313T21 295Q16 295 12 306T7 321Q13 333 30 352T69 391T114 424T158
438Q187 438 205 421T224 369Q224 359 221 339T215 311Q214 307 211 289T203 248T195 210T192 194Q191 188 189 172T184 141T181 120Q181 113 184 107T196 100Q207 100 225 124T264 186T303 271T330 363L344 431Q352 433 371 435T398 437Q406 437 426 435T456 431L399
129Q398 125 397 113T396 97Q396 90 399 83T409 76Q420 76 436 90T465 118T479 136Q484 136 488 125T492 109Q486 97 469 78T428 39T381 6T337 -8Q313 -8 294 8T275 62Q275 67 277 80T282 110Z" />
<glyph unicode="&#xfb;" glyph-name="ucircumflex" horiz-adv-x="520" d="M314 644Q319 644 324 634Q347 588 369 551T397 502Q396 495 393 489T385 480Q377 487 361 501T327 531T299 558Q284 547 261 531T217 500T185 480Q177 484 181 502Q187 508 207 529T253
579T301 634Q306 639 308 641T314 644ZM282 110Q285 126 288 140T294 162Q280 132 258 102T211 47T162 7T123 -8Q86 -8 74 11T62 76Q62 92 65 116T73 163T80 199Q86 229 91 250T100 302Q101 305 102 317T104 334Q104 341 101 347T90 354Q80 354 64 341T36 313T21
295Q16 295 12 306T7 321Q13 333 30 352T69 391T114 424T158 438Q187 438 205 421T224 369Q224 359 221 339T215 311Q214 307 211 289T203 248T195 210T192 194Q191 188 189 172T184 141T181 120Q181 113 184 107T196 100Q207 100 225 124T264 186T303 271T330
363L344 431Q352 433 371 435T398 437Q406 437 426 435T456 431L399 129Q398 125 397 113T396 97Q396 90 399 83T409 76Q420 76 436 90T465 118T479 136Q484 136 488 125T492 109Q486 97 469 78T428 39T381 6T337 -8Q313 -8 294 8T275 62Q275 67 277 80T282 110Z"
/>
<glyph unicode="&#xfc;" glyph-name="udieresis" horiz-adv-x="520" d="M388 635Q414 635 428 616T438 568Q433 540 410 520T361 500Q335 500 321 520T311 568Q316 596 339 615T388 635ZM216 635Q242 635 256 616T266 568Q261 540 239 520T190 500Q164 500 150
520T140 568Q145 596 167 615T216 635ZM282 110Q285 126 288 140T294 162Q280 132 258 102T211 47T162 7T123 -8Q86 -8 74 11T62 76Q62 92 65 116T73 163T80 199Q86 229 91 250T100 302Q101 305 102 317T104 334Q104 341 101 347T90 354Q80 354 64 341T36 313T21
295Q16 295 12 306T7 321Q13 333 30 352T69 391T114 424T158 438Q187 438 205 421T224 369Q224 359 221 339T215 311Q214 307 211 289T203 248T195 210T192 194Q191 188 189 172T184 141T181 120Q181 113 184 107T196 100Q207 100 225 124T264 186T303 271T330
363L344 431Q352 433 371 435T398 437Q406 437 426 435T456 431L399 129Q398 125 397 113T396 97Q396 90 399 83T409 76Q420 76 436 90T465 118T479 136Q484 136 488 125T492 109Q486 97 469 78T428 39T381 6T337 -8Q313 -8 294 8T275 62Q275 67 277 80T282 110Z"
/>
<glyph unicode="&#xfd;" glyph-name="yacute" horiz-adv-x="489" d="M263 489Q261 491 258 493T254 500Q255 504 265 520T291 557T321 597T348 626Q355 633 378 633Q391 633 406 623T422 593Q422 583 408 570T371 543T326 518T286 498T263 489ZM126 438Q159 438
182 415T219 353T242 268T253 177T256 94T257 35Q257 28 257 25Q270 41 287 70T321 137T349 216T360 297Q360 326 345 346T319 375Q319 392 329 406T355 429T385 438Q411 438 435 419T460 348Q460 291 435 228T368 101T274 -18T170 -118T69 -187T-11 -213Q-37 -213
-55 -198T-74 -152Q-74 -139 -65 -125T-45 -104Q-34 -111 -5 -123T52 -135Q83 -135 99 -127T122 -110T130 -98Q135 -84 136 -60T138 -9T139 39Q139 47 139 50Q139 92 135 143T122 240T100 317T69 348Q57 348 45 336T24 310T13 295Q7 296 3 307T-1 321Q3 328 16
347T49 387T88 423T126 438Z" />
<glyph unicode="&#xfe;" glyph-name="thorn" horiz-adv-x="485" d="M267 589Q266 584 262 561T251 505T239 442T228 389T223 364Q237 379 260 396T310 426T363 438Q410 438 434 405T459 320Q459 259 432 201T362 96T270 23T176 -5Q172 -5 164 -4T149 0L124 -123Q121
-136 121 -150Q121 -154 124 -162T135 -173Q146 -176 160 -176T179 -176Q181 -176 181 -176Q184 -177 183 -190T177 -206Q167 -206 159 -206T142 -205Q117 -205 83 -206T14 -208T-50 -214Q-54 -213 -53 -199T-48 -183Q-22 -183 -9 -167Q0 -155 7 -125L80 227L33
180Q30 184 28 192T26 206Q26 214 31 221T41 233L91 280L145 548Q148 562 151 577T154 600Q154 609 144 613T120 617T97 618Q96 618 95 618Q93 621 94 632T99 646Q119 648 145 652T198 662T245 673T274 681Q278 679 279 673T280 662Q280 658 278 645T273 617T267
589ZM295 356Q273 356 252 344T215 315Q213 305 208 278T196 221T186 168T181 146Q170 90 177 64T203 38Q229 38 252 65T294 134T322 218T333 292Q333 316 326 336T295 356Z" />
<glyph unicode="&#xff;" glyph-name="ydieresis" horiz-adv-x="489" d="M377 635Q403 635 417 616T427 568Q422 540 399 520T350 500Q324 500 310 520T300 568Q305 596 328 615T377 635ZM205 635Q231 635 245 616T255 568Q250 540 228 520T179 500Q153 500 139
520T129 568Q134 596 156 615T205 635ZM126 438Q159 438 182 415T219 353T242 268T253 177T256 94T257 35Q257 28 257 25Q270 41 287 70T321 137T349 216T360 297Q360 326 345 346T319 375Q319 392 329 406T355 429T385 438Q411 438 435 419T460 348Q460 291 435
228T368 101T274 -18T170 -118T69 -187T-11 -213Q-37 -213 -55 -198T-74 -152Q-74 -139 -65 -125T-45 -104Q-34 -111 -5 -123T52 -135Q83 -135 99 -127T122 -110T130 -98Q135 -84 136 -60T138 -9T139 39Q139 47 139 50Q139 92 135 143T122 240T100 317T69 348Q57
348 45 336T24 310T13 295Q7 296 3 307T-1 321Q3 328 16 347T49 387T88 423T126 438Z" />
<glyph unicode="&#x2013;" glyph-name="endash" horiz-adv-x="451" d="M459 262Q464 262 465 257T466 246Q466 230 457 212T444 189H67Q62 189 62 193T61 203Q61 204 61 205Q61 221 69 239T82 262H459Z" />
<glyph unicode="&#x2014;" glyph-name="emdash" horiz-adv-x="804" d="M804 262Q809 262 810 257T811 246Q811 230 802 212T789 189H67Q62 189 62 193T61 203Q61 204 61 205Q61 221 69 239T82 262H804Z" />
<glyph unicode="&#x2018;" glyph-name="quoteleft" horiz-adv-x="205" d="M43 534Q43 575 61 608T103 664T148 699T172 711Q187 711 195 690Q160 669 142 647T119 607T113 584Q113 571 122 560T142 537Q150 528 155 520T161 500Q161 479 137 464T84 449Q78 449
73 450T61 453Q53 465 48 488T43 534Z" />
<glyph unicode="&#x2019;" glyph-name="quoteright" horiz-adv-x="205" d="M186 628Q186 587 168 554T126 498T81 463T57 451Q42 451 34 472Q69 493 87 515T110 555T116 578Q116 591 107 602T87 625Q79 634 74 642T68 662Q68 683 92 698T145 713Q151 713 156 712T168
709Q176 697 181 674T186 628Z" />
<glyph unicode="&#x201a;" glyph-name="quotesinglbase" horiz-adv-x="205" d="M171 60Q171 19 153 -14T111 -70T66 -105T42 -117Q27 -117 19 -96Q54 -75 72 -53T95 -13T101 10Q101 23 92 34T72 57Q64 66 59 74T53 94Q53 115 77 130T130 145Q136 145 141 144T153
141Q161 129 166 106T171 60Z" />
<glyph unicode="&#x201c;" glyph-name="quotedblleft" horiz-adv-x="370" d="M208 534Q208 575 226 608T268 664T313 699T337 711Q352 711 360 690Q325 669 307 647T284 607T278 584Q278 571 287 560T307 537Q315 528 320 520T326 500Q326 479 302 464T249 449Q243
449 238 450T226 453Q218 465 213 488T208 534ZM43 534Q43 575 61 608T103 664T148 699T172 711Q187 711 195 690Q160 669 142 647T119 607T113 584Q113 571 122 560T142 537Q150 528 155 520T161 500Q161 479 137 464T84 449Q78 449 73 450T61 453Q53 465 48 488T43
534Z" />
<glyph unicode="&#x201d;" glyph-name="quotedblright" horiz-adv-x="370" d="M352 626Q352 585 334 552T292 496T247 461T223 449Q208 449 200 470Q235 491 253 513T276 553T282 576Q282 589 273 600T253 623Q245 632 240 640T234 660Q234 681 258 696T311 711Q317
711 322 710T334 707Q342 695 347 672T352 626ZM187 626Q187 585 169 552T127 496T82 461T58 449Q43 449 35 470Q70 491 88 513T111 553T117 576Q117 589 108 600T88 623Q80 632 75 640T69 660Q69 681 93 696T146 711Q152 711 157 710T169 707Q177 695 182 672T187
626Z" />
<glyph unicode="&#x201e;" glyph-name="quotedblbase" horiz-adv-x="370" d="M172 58Q172 17 154 -16T112 -72T67 -107T43 -119Q28 -119 20 -98Q55 -77 73 -55T96 -15T102 8Q102 21 93 32T73 55Q65 64 60 72T54 92Q54 113 78 128T131 143Q137 143 142 142T154
139Q162 127 167 104T172 58ZM337 58Q337 17 319 -16T277 -72T232 -107T208 -119Q193 -119 185 -98Q220 -77 238 -55T261 -15T267 8Q267 21 258 32T238 55Q230 64 225 72T219 92Q219 113 243 128T296 143Q302 143 307 142T319 139Q327 127 332 104T337 58Z" />
<glyph unicode="&#x2022;" glyph-name="bullet" horiz-adv-x="368" d="M105 257Q113 295 136 326T192 376T260 395Q295 395 320 376T356 326T359 257Q352 220 329 189T273 139T206 120Q171 120 146 138T109 188T105 257Z" />
<glyph unicode="&#x2039;" glyph-name="guilsinglleft" horiz-adv-x="301" d="M238 413Q255 409 258 404T261 395Q261 391 258 386T242 369T201 330Q190 320 174 303T141 268T115 241L200 153Q226 127 239 116T256 100T260 89Q260 80 251 77T237 71Q236 73 190
112T36 222Q29 225 29 235Q29 243 30 249T37 262Q101 301 145 335T214 391T238 413Z" />
<glyph unicode="&#x203a;" glyph-name="guilsinglright" horiz-adv-x="300" d="M65 71Q49 76 46 81T43 89Q43 95 47 100T65 117T102 153L187 241Q178 251 162 268T129 302T101 330Q72 358 60 370T45 387T42 395Q42 404 51 407T64 413Q65 412 88 391T157 335T265
262Q270 256 271 250T273 235Q273 225 266 222Q173 162 124 122T65 71Z" />
</font>
</defs>
</svg>
